<svg xmlns="http://www.w3.org/2000/svg" viewBox="0 0 512 512" style="enable-background:new 0 0 512 512" xml:space="preserve"><style>.st5{fill:#ed6b1d}</style><g id="Layer_2"><path class="st5" d="M38.3 129.9 256 3.7l217.7 124.8v253.6L255.3 508.3l-217-124.8z"/><path class="st5" d="m43.7 132.7 213 123.4 213-124.8-213-122-213 123.4"/><path style="fill:#f28f4b" d="M43.7 132.7v248.2l212.3 122 .7-246.8z"/><path style="fill:#d85914" d="m256.7 256.1 213-124.8v248.2L256 502.9z"/><path style="fill:#fff" d="m413.9 164.4-50.4 29-106.8-60.7-106.9 60.7v36.5h264.1v116.5l-156.5 91-157.9-91 51-29.7 106.2 61.4 106.2-60.7v-35.8H99.5V165.8l157.2-91z"/></g></svg>