<svg version="1.1" id="Capa_1" xmlns="http://www.w3.org/2000/svg" xmlns:xlink="http://www.w3.org/1999/xlink" x="0" y="0" viewBox="0 0 512 512" style="enable-background:new 0 0 512 512" xml:space="preserve"><style>.st32{fill:#ec6b1c}</style><path d="M118.6 424.5s-5 2.4.8 8.8c5.7 6.3 126.7 72.9 126.7 72.9s10 5.2 17.4 0l110.2-64.6s2.8-4.2-3.1-7.1l-126.5-73.3s-6.4-5-14.9 0-110.6 63.3-110.6 63.3z" style="opacity:.2;fill:#1e1a21;enable-background:new"/><linearGradient id="SVGID_1_" gradientUnits="userSpaceOnUse" x1="197.8" y1="72.4" x2="197.8" y2="72.4" gradientTransform="translate(0 370)"><stop offset="0" style="stop-color:#3f00fc"/><stop offset=".208" style="stop-color:#3f02f7"/><stop offset=".467" style="stop-color:#3e09e7"/><stop offset=".753" style="stop-color:#3e14ce"/><stop offset="1" style="stop-color:#3d20b2"/></linearGradient><linearGradient id="XMLID_2_" gradientUnits="userSpaceOnUse" x1="222.464" y1="16492.107" x2="289.561" y2="16241.7" gradientTransform="translate(0 -16014)"><stop offset="0" style="stop-color:#4f3e90"/><stop offset="1" style="stop-color:#171a31"/></linearGradient><path id="XMLID_20_" style="fill:url(#XMLID_2_)" d="M140 420.1V285.8l115.6-67.2L372 285.7v134.4l-115.6 67.1z"/><linearGradient id="XMLID_3_" gradientUnits="userSpaceOnUse" x1="239.239" y1="16362.302" x2="272.761" y2="16237.198" gradientTransform="translate(0 -16014)"><stop offset="0" style="stop-color:#4f3e90"/><stop offset="1" style="stop-color:#171a31"/></linearGradient><path id="XMLID_49_" style="fill:url(#XMLID_3_)" d="M255.6 218.6 372 285.7l-115.6 67.2L140 285.8z"/><linearGradient id="XMLID_4_" gradientUnits="userSpaceOnUse" x1="292.884" y1="16320.899" x2="335.516" y2="16480" gradientTransform="translate(0 -16014)"><stop offset="0" style="stop-color:#4f3e90"/><stop offset="1" style="stop-color:#171a31"/></linearGradient><path id="XMLID_50_" style="fill:url(#XMLID_4_)" d="M256.4 487.2V352.9L372 285.7v134.4z"/><g id="XMLID_97_"><linearGradient id="XMLID_5_" gradientUnits="userSpaceOnUse" x1="186.2" y1="231.75" x2="322.9" y2="231.75" gradientTransform="matrix(1 0 0 -1 0 512)"><stop offset="0" style="stop-color:#7f00ff;stop-opacity:.4"/><stop offset="1" style="stop-color:#3d00ff;stop-opacity:.6"/></linearGradient><path id="XMLID_98_" style="fill:url(#XMLID_5_)" d="m254.4 240.7 68.5 39.6-68.1 39.5-68.6-39.5z"/><defs><path id="SVGID_2_" d="m254.4 240.7 68.5 39.6-68.1 39.5-68.6-39.5z"/></defs><clipPath id="SVGID_3_"><use xlink:href="#SVGID_2_" style="overflow:visible"/></clipPath><linearGradient id="XMLID_6_" gradientUnits="userSpaceOnUse" x1="244.64" y1="16269.715" x2="264.467" y2="16343.71" gradientTransform="translate(0 -16014)"><stop offset="0" style="stop-color:#7f00ff;stop-opacity:.4"/><stop offset="1" style="stop-color:#3d00ff;stop-opacity:.6"/></linearGradient><path id="XMLID_109_" style="clip-path:url(#SVGID_3_);fill:url(#XMLID_6_)" d="m254.4 253.1 68.5 39.6-68.1 39.6-68.6-39.6z"/><defs><path id="SVGID_4_" d="m254.4 240.7 68.5 39.6-68.1 39.5-68.6-39.5z"/></defs><clipPath id="SVGID_5_"><use xlink:href="#SVGID_4_" style="overflow:visible"/></clipPath><linearGradient id="XMLID_7_" gradientUnits="userSpaceOnUse" x1="244.64" y1="16281.915" x2="264.467" y2="16355.91" gradientTransform="translate(0 -16014)"><stop offset="0" style="stop-color:#7f00ff;stop-opacity:.4"/><stop offset="1" style="stop-color:#3d00ff;stop-opacity:.6"/></linearGradient><path id="XMLID_108_" style="clip-path:url(#SVGID_5_);fill:url(#XMLID_7_)" d="m254.4 265.3 68.5 39.6-68.1 39.6-68.6-39.6z"/><defs><path id="SVGID_6_" d="m254.4 240.7 68.5 39.6-68.1 39.5-68.6-39.5z"/></defs><clipPath id="SVGID_7_"><use xlink:href="#SVGID_6_" style="overflow:visible"/></clipPath><linearGradient id="XMLID_8_" gradientUnits="userSpaceOnUse" x1="244.64" y1="16294.115" x2="264.467" y2="16368.109" gradientTransform="translate(0 -16014)"><stop offset="0" style="stop-color:#7f00ff;stop-opacity:.4"/><stop offset="1" style="stop-color:#3d00ff;stop-opacity:.6"/></linearGradient><path id="XMLID_107_" style="clip-path:url(#SVGID_7_);fill:url(#XMLID_8_)" d="m254.4 277.5 68.5 39.6-68.1 39.6-68.6-39.6z"/><defs><path id="SVGID_8_" d="m254.4 240.7 68.5 39.6-68.1 39.5-68.6-39.5z"/></defs><clipPath id="SVGID_9_"><use xlink:href="#SVGID_8_" style="overflow:visible"/></clipPath><linearGradient id="XMLID_9_" gradientUnits="userSpaceOnUse" x1="244.64" y1="16306.315" x2="264.467" y2="16380.31" gradientTransform="translate(0 -16014)"><stop offset="0" style="stop-color:#7f00ff;stop-opacity:.4"/><stop offset="1" style="stop-color:#3d00ff;stop-opacity:.6"/></linearGradient><path id="XMLID_105_" style="clip-path:url(#SVGID_9_);fill:url(#XMLID_9_)" d="m254.4 289.7 68.5 39.6-68.1 39.6-68.6-39.6z"/><defs><path id="SVGID_10_" d="m254.4 240.7 68.5 39.6-68.1 39.5-68.6-39.5z"/></defs><clipPath id="SVGID_11_"><use xlink:href="#SVGID_10_" style="overflow:visible"/></clipPath><linearGradient id="XMLID_10_" gradientUnits="userSpaceOnUse" x1="244.665" y1="16318.608" x2="264.467" y2="16392.51" gradientTransform="translate(0 -16014)"><stop offset="0" style="stop-color:#7f00ff;stop-opacity:.4"/><stop offset="1" style="stop-color:#3d00ff;stop-opacity:.6"/></linearGradient><path id="XMLID_104_" style="clip-path:url(#SVGID_11_);fill:url(#XMLID_10_)" d="m254.4 302 68.5 39.5-68.1 39.6-68.6-39.6z"/><defs><path id="SVGID_12_" d="m254.4 240.7 68.5 39.6-68.1 39.5-68.6-39.5z"/></defs><clipPath id="SVGID_13_"><use xlink:href="#SVGID_12_" style="overflow:visible"/></clipPath><linearGradient id="XMLID_11_" gradientUnits="userSpaceOnUse" x1="244.665" y1="16330.809" x2="264.467" y2="16404.709" gradientTransform="translate(0 -16014)"><stop offset="0" style="stop-color:#7f00ff;stop-opacity:.4"/><stop offset="1" style="stop-color:#3d00ff;stop-opacity:.6"/></linearGradient><path id="XMLID_103_" style="clip-path:url(#SVGID_13_);fill:url(#XMLID_11_)" d="m254.4 314.2 68.5 39.5-68.1 39.6-68.6-39.6z"/><defs><path id="SVGID_14_" d="m254.4 240.7 68.5 39.6-68.1 39.5-68.6-39.5z"/></defs><clipPath id="SVGID_15_"><use xlink:href="#SVGID_14_" style="overflow:visible"/></clipPath><linearGradient id="XMLID_12_" gradientUnits="userSpaceOnUse" x1="244.665" y1="16343.009" x2="264.467" y2="16416.91" gradientTransform="translate(0 -16014)"><stop offset="0" style="stop-color:#7f00ff;stop-opacity:.4"/><stop offset="1" style="stop-color:#3d00ff;stop-opacity:.6"/></linearGradient><path id="XMLID_101_" style="clip-path:url(#SVGID_15_);fill:url(#XMLID_12_)" d="m254.4 326.4 68.5 39.5-68.1 39.6-68.6-39.6z"/><defs><path id="SVGID_16_" d="m254.4 240.7 68.5 39.6-68.1 39.5-68.6-39.5z"/></defs><clipPath id="SVGID_17_"><use xlink:href="#SVGID_16_" style="overflow:visible"/></clipPath><linearGradient id="XMLID_13_" gradientUnits="userSpaceOnUse" x1="244.652" y1="16355.212" x2="264.454" y2="16429.113" gradientTransform="translate(0 -16014)"><stop offset="0" style="stop-color:#7f00ff;stop-opacity:.4"/><stop offset="1" style="stop-color:#3d00ff;stop-opacity:.6"/></linearGradient><path id="XMLID_100_" style="clip-path:url(#SVGID_17_);fill:url(#XMLID_13_)" d="m254.4 338.6 68.5 39.5-68.1 39.6-68.6-39.5z"/></g><path id="XMLID_56_" style="opacity:.5;fill:none;stroke:#0053fb;stroke-width:2;stroke-miterlimit:10;enable-background:new" d="M331.1 309.5V392l-24 15.9v49.9"/><linearGradient id="XMLID_14_" gradientUnits="userSpaceOnUse" x1="266.037" y1="16311.8" x2="267.572" y2="16311.8" gradientTransform="translate(0 -16014)"><stop offset="0" style="stop-color:#3f00fc"/><stop offset=".208" style="stop-color:#3f02f7"/><stop offset=".467" style="stop-color:#3e09e7"/><stop offset=".753" style="stop-color:#3e14ce"/><stop offset="1" style="stop-color:#3d20b2"/></linearGradient><circle id="XMLID_304_" cx="266.8" cy="297.8" r=".8" style="fill:url(#XMLID_14_)"/><linearGradient id="XMLID_15_" gradientUnits="userSpaceOnUse" x1="220.483" y1="16208" x2="222.018" y2="16208" gradientTransform="translate(0 -16014)"><stop offset="0" style="stop-color:#3f00fc"/><stop offset=".208" style="stop-color:#3f02f7"/><stop offset=".467" style="stop-color:#3e09e7"/><stop offset=".753" style="stop-color:#3e14ce"/><stop offset="1" style="stop-color:#3d20b2"/></linearGradient><circle id="XMLID_302_" cx="221.3" cy="194" r=".8" style="fill:url(#XMLID_15_)"/><linearGradient id="XMLID_16_" gradientUnits="userSpaceOnUse" x1="314.391" y1="16137.5" x2="317.964" y2="16137.5" gradientTransform="translate(0 -16014)"><stop offset="0" style="stop-color:#3f00fc"/><stop offset=".208" style="stop-color:#3f02f7"/><stop offset=".467" style="stop-color:#3e09e7"/><stop offset=".753" style="stop-color:#3e14ce"/><stop offset="1" style="stop-color:#3d20b2"/></linearGradient><circle id="XMLID_37_" cx="316.2" cy="123.5" r="1.8" style="fill:url(#XMLID_16_)"/><linearGradient id="XMLID_17_" gradientUnits="userSpaceOnUse" x1="334.215" y1="16057.5" x2="335.665" y2="16057.5" gradientTransform="translate(0 -16014)"><stop offset="0" style="stop-color:#3f00fc"/><stop offset=".208" style="stop-color:#3f02f7"/><stop offset=".467" style="stop-color:#3e09e7"/><stop offset=".753" style="stop-color:#3e14ce"/><stop offset="1" style="stop-color:#3d20b2"/></linearGradient><circle id="XMLID_43_" cx="334.9" cy="43.5" r=".7" style="fill:url(#XMLID_17_)"/><linearGradient id="XMLID_18_" gradientUnits="userSpaceOnUse" x1="205.494" y1="16133" x2="209.068" y2="16133" gradientTransform="translate(0 -16014)"><stop offset="0" style="stop-color:#3f00fc"/><stop offset=".208" style="stop-color:#3f02f7"/><stop offset=".467" style="stop-color:#3e09e7"/><stop offset=".753" style="stop-color:#3e14ce"/><stop offset="1" style="stop-color:#3d20b2"/></linearGradient><circle id="XMLID_143_" cx="207.3" cy="119" r="1.8" style="fill:url(#XMLID_18_)"/><linearGradient id="XMLID_19_" gradientUnits="userSpaceOnUse" x1="327.329" y1="16216.9" x2="328.779" y2="16216.9" gradientTransform="translate(0 -16014)"><stop offset="0" style="stop-color:#3f00fc"/><stop offset=".208" style="stop-color:#3f02f7"/><stop offset=".467" style="stop-color:#3e09e7"/><stop offset=".753" style="stop-color:#3e14ce"/><stop offset="1" style="stop-color:#3d20b2"/></linearGradient><circle id="XMLID_142_" cx="328.1" cy="202.9" r=".7" style="fill:url(#XMLID_19_)"/><linearGradient id="XMLID_21_" gradientUnits="userSpaceOnUse" x1="253.609" y1="16150.6" x2="255.543" y2="16150.6" gradientTransform="translate(0 -16014)"><stop offset="0" style="stop-color:#3f00fc"/><stop offset=".208" style="stop-color:#3f02f7"/><stop offset=".467" style="stop-color:#3e09e7"/><stop offset=".753" style="stop-color:#3e14ce"/><stop offset="1" style="stop-color:#3d20b2"/></linearGradient><circle id="XMLID_140_" cx="254.6" cy="136.6" r="1" style="fill:url(#XMLID_21_)"/><linearGradient id="XMLID_22_" gradientUnits="userSpaceOnUse" x1="259.151" y1="16271.2" x2="262.724" y2="16271.2" gradientTransform="translate(0 -16014)"><stop offset="0" style="stop-color:#3f00fc"/><stop offset=".208" style="stop-color:#3f02f7"/><stop offset=".467" style="stop-color:#3e09e7"/><stop offset=".753" style="stop-color:#3e14ce"/><stop offset="1" style="stop-color:#3d20b2"/></linearGradient><circle id="XMLID_73_" cx="260.9" cy="257.2" r="1.8" style="fill:url(#XMLID_22_)"/><linearGradient id="XMLID_23_" gradientUnits="userSpaceOnUse" x1="244.256" y1="16191.8" x2="245.706" y2="16191.8" gradientTransform="translate(0 -16014)"><stop offset="0" style="stop-color:#3f00fc"/><stop offset=".208" style="stop-color:#3f02f7"/><stop offset=".467" style="stop-color:#3e09e7"/><stop offset=".753" style="stop-color:#3e14ce"/><stop offset="1" style="stop-color:#3d20b2"/></linearGradient><circle id="XMLID_72_" cx="245" cy="177.8" r=".7" style="fill:url(#XMLID_23_)"/><linearGradient id="XMLID_24_" gradientUnits="userSpaceOnUse" x1="236.267" y1="16300.4" x2="238.201" y2="16300.4" gradientTransform="translate(0 -16014)"><stop offset="0" style="stop-color:#3f00fc"/><stop offset=".208" style="stop-color:#3f02f7"/><stop offset=".467" style="stop-color:#3e09e7"/><stop offset=".753" style="stop-color:#3e14ce"/><stop offset="1" style="stop-color:#3d20b2"/></linearGradient><circle id="XMLID_71_" cx="237.2" cy="286.4" r="1" style="fill:url(#XMLID_24_)"/><linearGradient id="XMLID_25_" gradientUnits="userSpaceOnUse" x1="284.8" y1="16248.9" x2="286.734" y2="16248.9" gradientTransform="translate(0 -16014)"><stop offset="0" style="stop-color:#3f00fc"/><stop offset=".208" style="stop-color:#3f02f7"/><stop offset=".467" style="stop-color:#3e09e7"/><stop offset=".753" style="stop-color:#3e14ce"/><stop offset="1" style="stop-color:#3d20b2"/></linearGradient><circle id="XMLID_70_" cx="285.8" cy="234.9" r="1" style="fill:url(#XMLID_25_)"/><linearGradient id="XMLID_26_" gradientUnits="userSpaceOnUse" x1="219.464" y1="16039.9" x2="223.037" y2="16039.9" gradientTransform="translate(0 -16014)"><stop offset="0" style="stop-color:#3f00fc"/><stop offset=".208" style="stop-color:#3f02f7"/><stop offset=".467" style="stop-color:#3e09e7"/><stop offset=".753" style="stop-color:#3e14ce"/><stop offset="1" style="stop-color:#3d20b2"/></linearGradient><circle id="XMLID_369_" cx="221.3" cy="25.9" r="1.8" style="fill:url(#XMLID_26_)"/><linearGradient id="XMLID_27_" gradientUnits="userSpaceOnUse" x1="257.364" y1="16098.5" x2="260.938" y2="16098.5" gradientTransform="translate(0 -16014)"><stop offset="0" style="stop-color:#3f00fc"/><stop offset=".208" style="stop-color:#3f02f7"/><stop offset=".467" style="stop-color:#3e09e7"/><stop offset=".753" style="stop-color:#3e14ce"/><stop offset="1" style="stop-color:#3d20b2"/></linearGradient><circle id="XMLID_359_" cx="259.2" cy="84.5" r="1.8" style="fill:url(#XMLID_27_)"/><linearGradient id="XMLID_28_" gradientUnits="userSpaceOnUse" x1="271.828" y1="16079.1" x2="273.762" y2="16079.1" gradientTransform="translate(0 -16014)"><stop offset="0" style="stop-color:#3f00fc"/><stop offset=".208" style="stop-color:#3f02f7"/><stop offset=".467" style="stop-color:#3e09e7"/><stop offset=".753" style="stop-color:#3e14ce"/><stop offset="1" style="stop-color:#3d20b2"/></linearGradient><circle id="XMLID_358_" cx="272.8" cy="65.1" r="1" style="fill:url(#XMLID_28_)"/><g style="opacity:.5"><path style="fill:none;stroke:#0053fb;stroke-miterlimit:10" d="M254.6 0v297.1"/></g><path style="opacity:.2;fill:#fff" d="m299.5 293.9-44.7 25.9-60.8-35V246h121v38.8z"/><path class="st32" d="m194.1 176.5 60.5-35.1 60.5 34.7v70.5l-60.7 35-60.3-34.6z"/><path class="st32" d="m195.6 177.2 59.2 34.3 59.2-34.7-59.2-33.9-59.2 34.3"/><path style="fill:#f18d4a" d="M195.6 177.2v69l59 33.9.2-68.6z"/><path style="fill:#d75814" d="m254.8 211.5 59.2-34.7v69l-59.4 34.3z"/><path style="fill:#fff" d="m298.5 186-14 8.1-29.7-16.9-29.7 16.9v10.1h73.4v32.4L255 261.9l-43.9-25.3 14.2-8.2 29.5 17.1 29.5-16.9v-10h-73.2v-32.2l43.7-25.3z"/></svg>