<?xml version="1.0" encoding="utf-8"?>
<!-- Generator: Adobe Illustrator 25.2.1, SVG Export Plug-In . SVG Version: 6.00 Build 0)  -->
<svg version="1.1" id="Capa_1" xmlns="http://www.w3.org/2000/svg" xmlns:xlink="http://www.w3.org/1999/xlink" x="0px" y="0px"
	 viewBox="0 0 512 512" style="enable-background:new 0 0 512 512;" xml:space="preserve">
<style type="text/css">
	.st0{opacity:0.2;fill:#1E1A21;enable-background:new    ;}
	.st1{fill:none;stroke:url(#SVGID_1_);stroke-width:3;stroke-linecap:round;stroke-linejoin:round;stroke-miterlimit:10;}
	.st2{fill:url(#XMLID_2_);}
	.st3{fill:url(#XMLID_3_);}
	.st4{fill:url(#XMLID_4_);}
	.st5{fill:url(#XMLID_5_);}
	.st6{clip-path:url(#SVGID_3_);fill:url(#XMLID_6_);}
	.st7{clip-path:url(#SVGID_5_);fill:url(#XMLID_7_);}
	.st8{clip-path:url(#SVGID_7_);fill:url(#XMLID_8_);}
	.st9{clip-path:url(#SVGID_9_);fill:url(#XMLID_9_);}
	.st10{clip-path:url(#SVGID_11_);fill:url(#XMLID_10_);}
	.st11{clip-path:url(#SVGID_13_);fill:url(#XMLID_11_);}
	.st12{clip-path:url(#SVGID_15_);fill:url(#XMLID_12_);}
	.st13{clip-path:url(#SVGID_17_);fill:url(#XMLID_13_);}
	.st14{opacity:0.5;fill:none;stroke:#0053FB;stroke-width:2;stroke-miterlimit:10;enable-background:new    ;}
	.st15{fill:url(#XMLID_14_);}
	.st16{fill:url(#XMLID_15_);}
	.st17{fill:url(#XMLID_16_);}
	.st18{fill:url(#XMLID_17_);}
	.st19{fill:url(#XMLID_18_);}
	.st20{fill:url(#XMLID_19_);}
	.st21{fill:url(#XMLID_21_);}
	.st22{fill:url(#XMLID_22_);}
	.st23{fill:url(#XMLID_23_);}
	.st24{fill:url(#XMLID_24_);}
	.st25{fill:url(#XMLID_25_);}
	.st26{fill:url(#XMLID_26_);}
	.st27{fill:url(#XMLID_27_);}
	.st28{fill:url(#XMLID_28_);}
	.st29{opacity:0.5;}
	.st30{fill:none;stroke:#0053FB;stroke-miterlimit:10;}
	.st31{opacity:0.2;fill:#FFFFFF;}
	.st32{fill:#EC6B1C;}
	.st33{fill:#F18D4A;}
	.st34{fill:#D75814;}
	.st35{fill:#FFFFFF;}
</style>
<path class="st0" d="M118.6,424.5c0,0-5,2.4,0.8,8.8c5.7,6.3,126.7,72.9,126.7,72.9s10,5.2,17.4,0l110.2-64.6c0,0,2.8-4.2-3.1-7.1
	l-126.5-73.3c0,0-6.4-5-14.9,0S118.6,424.5,118.6,424.5z"/>
<linearGradient id="SVGID_1_" gradientUnits="userSpaceOnUse" x1="197.8" y1="72.4" x2="197.8" y2="72.4" gradientTransform="matrix(1 0 0 1 0 370)">
	<stop  offset="2.945171e-07" style="stop-color:#3F00FC"/>
	<stop  offset="0.2077" style="stop-color:#3F02F7"/>
	<stop  offset="0.4672" style="stop-color:#3E09E7"/>
	<stop  offset="0.7531" style="stop-color:#3E14CE"/>
	<stop  offset="1" style="stop-color:#3D20B2"/>
</linearGradient>
<path class="st1" d="M197.8,442.4"/>
<linearGradient id="XMLID_2_" gradientUnits="userSpaceOnUse" x1="222.4643" y1="16492.1074" x2="289.5607" y2="16241.7002" gradientTransform="matrix(1 0 0 1 0 -16014)">
	<stop  offset="0" style="stop-color:#4F3E90"/>
	<stop  offset="1" style="stop-color:#171A31"/>
</linearGradient>
<polygon id="XMLID_20_" class="st2" points="140,420.1 140,285.8 255.6,218.6 372,285.7 372,420.1 256.4,487.2 "/>
<linearGradient id="XMLID_3_" gradientUnits="userSpaceOnUse" x1="239.2393" y1="16362.3018" x2="272.7607" y2="16237.1982" gradientTransform="matrix(1 0 0 1 0 -16014)">
	<stop  offset="0" style="stop-color:#4F3E90"/>
	<stop  offset="1" style="stop-color:#171A31"/>
</linearGradient>
<polygon id="XMLID_49_" class="st3" points="255.6,218.6 372,285.7 256.4,352.9 140,285.8 "/>
<linearGradient id="XMLID_4_" gradientUnits="userSpaceOnUse" x1="292.8843" y1="16320.8994" x2="335.5157" y2="16480" gradientTransform="matrix(1 0 0 1 0 -16014)">
	<stop  offset="0" style="stop-color:#4F3E90"/>
	<stop  offset="1" style="stop-color:#171A31"/>
</linearGradient>
<polygon id="XMLID_50_" class="st4" points="256.4,487.2 256.4,352.9 372,285.7 372,420.1 "/>
<g id="XMLID_97_">
	<g>
		
			<linearGradient id="XMLID_5_" gradientUnits="userSpaceOnUse" x1="186.2" y1="231.75" x2="322.9" y2="231.75" gradientTransform="matrix(1 0 0 -1 0 512)">
			<stop  offset="1.916698e-07" style="stop-color:#7F00FF;stop-opacity:0.4"/>
			<stop  offset="1" style="stop-color:#3D00FF;stop-opacity:0.6"/>
		</linearGradient>
		<polygon id="XMLID_98_" class="st5" points="254.4,240.7 322.9,280.3 254.8,319.8 186.2,280.3 		"/>
	</g>
	<g>
		<defs>
			<polygon id="SVGID_2_" points="254.4,240.7 322.9,280.3 254.8,319.8 186.2,280.3 			"/>
		</defs>
		<clipPath id="SVGID_3_">
			<use xlink:href="#SVGID_2_"  style="overflow:visible;"/>
		</clipPath>
		
			<linearGradient id="XMLID_6_" gradientUnits="userSpaceOnUse" x1="244.6399" y1="16269.7148" x2="264.4668" y2="16343.71" gradientTransform="matrix(1 0 0 1 0 -16014)">
			<stop  offset="1.916698e-07" style="stop-color:#7F00FF;stop-opacity:0.4"/>
			<stop  offset="1" style="stop-color:#3D00FF;stop-opacity:0.6"/>
		</linearGradient>
		<polygon id="XMLID_109_" class="st6" points="254.4,253.1 322.9,292.7 254.8,332.3 186.2,292.7 		"/>
	</g>
	<g>
		<defs>
			<polygon id="SVGID_4_" points="254.4,240.7 322.9,280.3 254.8,319.8 186.2,280.3 			"/>
		</defs>
		<clipPath id="SVGID_5_">
			<use xlink:href="#SVGID_4_"  style="overflow:visible;"/>
		</clipPath>
		
			<linearGradient id="XMLID_7_" gradientUnits="userSpaceOnUse" x1="244.6399" y1="16281.915" x2="264.4668" y2="16355.9102" gradientTransform="matrix(1 0 0 1 0 -16014)">
			<stop  offset="1.916698e-07" style="stop-color:#7F00FF;stop-opacity:0.4"/>
			<stop  offset="1" style="stop-color:#3D00FF;stop-opacity:0.6"/>
		</linearGradient>
		<polygon id="XMLID_108_" class="st7" points="254.4,265.3 322.9,304.9 254.8,344.5 186.2,304.9 		"/>
	</g>
	<g>
		<defs>
			<polygon id="SVGID_6_" points="254.4,240.7 322.9,280.3 254.8,319.8 186.2,280.3 			"/>
		</defs>
		<clipPath id="SVGID_7_">
			<use xlink:href="#SVGID_6_"  style="overflow:visible;"/>
		</clipPath>
		
			<linearGradient id="XMLID_8_" gradientUnits="userSpaceOnUse" x1="244.6399" y1="16294.1152" x2="264.4668" y2="16368.1094" gradientTransform="matrix(1 0 0 1 0 -16014)">
			<stop  offset="1.916698e-07" style="stop-color:#7F00FF;stop-opacity:0.4"/>
			<stop  offset="1" style="stop-color:#3D00FF;stop-opacity:0.6"/>
		</linearGradient>
		<polygon id="XMLID_107_" class="st8" points="254.4,277.5 322.9,317.1 254.8,356.7 186.2,317.1 		"/>
	</g>
	<g>
		<defs>
			<polygon id="SVGID_8_" points="254.4,240.7 322.9,280.3 254.8,319.8 186.2,280.3 			"/>
		</defs>
		<clipPath id="SVGID_9_">
			<use xlink:href="#SVGID_8_"  style="overflow:visible;"/>
		</clipPath>
		
			<linearGradient id="XMLID_9_" gradientUnits="userSpaceOnUse" x1="244.6399" y1="16306.3154" x2="264.4668" y2="16380.3096" gradientTransform="matrix(1 0 0 1 0 -16014)">
			<stop  offset="1.916698e-07" style="stop-color:#7F00FF;stop-opacity:0.4"/>
			<stop  offset="1" style="stop-color:#3D00FF;stop-opacity:0.6"/>
		</linearGradient>
		<polygon id="XMLID_105_" class="st9" points="254.4,289.7 322.9,329.3 254.8,368.9 186.2,329.3 		"/>
	</g>
	<g>
		<defs>
			<polygon id="SVGID_10_" points="254.4,240.7 322.9,280.3 254.8,319.8 186.2,280.3 			"/>
		</defs>
		<clipPath id="SVGID_11_">
			<use xlink:href="#SVGID_10_"  style="overflow:visible;"/>
		</clipPath>
		
			<linearGradient id="XMLID_10_" gradientUnits="userSpaceOnUse" x1="244.6649" y1="16318.6084" x2="264.4668" y2="16392.5098" gradientTransform="matrix(1 0 0 1 0 -16014)">
			<stop  offset="1.916698e-07" style="stop-color:#7F00FF;stop-opacity:0.4"/>
			<stop  offset="1" style="stop-color:#3D00FF;stop-opacity:0.6"/>
		</linearGradient>
		<polygon id="XMLID_104_" class="st10" points="254.4,302 322.9,341.5 254.8,381.1 186.2,341.5 		"/>
	</g>
	<g>
		<defs>
			<polygon id="SVGID_12_" points="254.4,240.7 322.9,280.3 254.8,319.8 186.2,280.3 			"/>
		</defs>
		<clipPath id="SVGID_13_">
			<use xlink:href="#SVGID_12_"  style="overflow:visible;"/>
		</clipPath>
		
			<linearGradient id="XMLID_11_" gradientUnits="userSpaceOnUse" x1="244.6649" y1="16330.8086" x2="264.4668" y2="16404.709" gradientTransform="matrix(1 0 0 1 0 -16014)">
			<stop  offset="1.916698e-07" style="stop-color:#7F00FF;stop-opacity:0.4"/>
			<stop  offset="1" style="stop-color:#3D00FF;stop-opacity:0.6"/>
		</linearGradient>
		<polygon id="XMLID_103_" class="st11" points="254.4,314.2 322.9,353.7 254.8,393.3 186.2,353.7 		"/>
	</g>
	<g>
		<defs>
			<polygon id="SVGID_14_" points="254.4,240.7 322.9,280.3 254.8,319.8 186.2,280.3 			"/>
		</defs>
		<clipPath id="SVGID_15_">
			<use xlink:href="#SVGID_14_"  style="overflow:visible;"/>
		</clipPath>
		
			<linearGradient id="XMLID_12_" gradientUnits="userSpaceOnUse" x1="244.6649" y1="16343.0088" x2="264.4668" y2="16416.9102" gradientTransform="matrix(1 0 0 1 0 -16014)">
			<stop  offset="1.916698e-07" style="stop-color:#7F00FF;stop-opacity:0.4"/>
			<stop  offset="1" style="stop-color:#3D00FF;stop-opacity:0.6"/>
		</linearGradient>
		<polygon id="XMLID_101_" class="st12" points="254.4,326.4 322.9,365.9 254.8,405.5 186.2,365.9 		"/>
	</g>
	<g>
		<defs>
			<polygon id="SVGID_16_" points="254.4,240.7 322.9,280.3 254.8,319.8 186.2,280.3 			"/>
		</defs>
		<clipPath id="SVGID_17_">
			<use xlink:href="#SVGID_16_"  style="overflow:visible;"/>
		</clipPath>
		
			<linearGradient id="XMLID_13_" gradientUnits="userSpaceOnUse" x1="244.6524" y1="16355.2119" x2="264.4543" y2="16429.1133" gradientTransform="matrix(1 0 0 1 0 -16014)">
			<stop  offset="1.916698e-07" style="stop-color:#7F00FF;stop-opacity:0.4"/>
			<stop  offset="1" style="stop-color:#3D00FF;stop-opacity:0.6"/>
		</linearGradient>
		<polygon id="XMLID_100_" class="st13" points="254.4,338.6 322.9,378.1 254.8,417.7 186.2,378.2 		"/>
	</g>
</g>
<polyline id="XMLID_56_" class="st14" points="331.1,309.5 331.1,392 307.1,407.9 307.1,457.8 "/>
<linearGradient id="XMLID_14_" gradientUnits="userSpaceOnUse" x1="266.037" y1="16311.7998" x2="267.5721" y2="16311.7998" gradientTransform="matrix(1 0 0 1 0 -16014)">
	<stop  offset="2.945171e-07" style="stop-color:#3F00FC"/>
	<stop  offset="0.2077" style="stop-color:#3F02F7"/>
	<stop  offset="0.4672" style="stop-color:#3E09E7"/>
	<stop  offset="0.7531" style="stop-color:#3E14CE"/>
	<stop  offset="1" style="stop-color:#3D20B2"/>
</linearGradient>
<circle id="XMLID_304_" class="st15" cx="266.8" cy="297.8" r="0.8"/>
<linearGradient id="XMLID_15_" gradientUnits="userSpaceOnUse" x1="220.4831" y1="16208" x2="222.0182" y2="16208" gradientTransform="matrix(1 0 0 1 0 -16014)">
	<stop  offset="2.945171e-07" style="stop-color:#3F00FC"/>
	<stop  offset="0.2077" style="stop-color:#3F02F7"/>
	<stop  offset="0.4672" style="stop-color:#3E09E7"/>
	<stop  offset="0.7531" style="stop-color:#3E14CE"/>
	<stop  offset="1" style="stop-color:#3D20B2"/>
</linearGradient>
<circle id="XMLID_302_" class="st16" cx="221.3" cy="194" r="0.8"/>
<linearGradient id="XMLID_16_" gradientUnits="userSpaceOnUse" x1="314.3911" y1="16137.5" x2="317.9645" y2="16137.5" gradientTransform="matrix(1 0 0 1 0 -16014)">
	<stop  offset="2.945171e-07" style="stop-color:#3F00FC"/>
	<stop  offset="0.2077" style="stop-color:#3F02F7"/>
	<stop  offset="0.4672" style="stop-color:#3E09E7"/>
	<stop  offset="0.7531" style="stop-color:#3E14CE"/>
	<stop  offset="1" style="stop-color:#3D20B2"/>
</linearGradient>
<circle id="XMLID_37_" class="st17" cx="316.2" cy="123.5" r="1.8"/>
<linearGradient id="XMLID_17_" gradientUnits="userSpaceOnUse" x1="334.2146" y1="16057.5" x2="335.6652" y2="16057.5" gradientTransform="matrix(1 0 0 1 0 -16014)">
	<stop  offset="2.945171e-07" style="stop-color:#3F00FC"/>
	<stop  offset="0.2077" style="stop-color:#3F02F7"/>
	<stop  offset="0.4672" style="stop-color:#3E09E7"/>
	<stop  offset="0.7531" style="stop-color:#3E14CE"/>
	<stop  offset="1" style="stop-color:#3D20B2"/>
</linearGradient>
<circle id="XMLID_43_" class="st18" cx="334.9" cy="43.5" r="0.7"/>
<linearGradient id="XMLID_18_" gradientUnits="userSpaceOnUse" x1="205.4942" y1="16133" x2="209.0676" y2="16133" gradientTransform="matrix(1 0 0 1 0 -16014)">
	<stop  offset="2.945171e-07" style="stop-color:#3F00FC"/>
	<stop  offset="0.2077" style="stop-color:#3F02F7"/>
	<stop  offset="0.4672" style="stop-color:#3E09E7"/>
	<stop  offset="0.7531" style="stop-color:#3E14CE"/>
	<stop  offset="1" style="stop-color:#3D20B2"/>
</linearGradient>
<circle id="XMLID_143_" class="st19" cx="207.3" cy="119" r="1.8"/>
<linearGradient id="XMLID_19_" gradientUnits="userSpaceOnUse" x1="327.3285" y1="16216.9004" x2="328.7791" y2="16216.9004" gradientTransform="matrix(1 0 0 1 0 -16014)">
	<stop  offset="2.945171e-07" style="stop-color:#3F00FC"/>
	<stop  offset="0.2077" style="stop-color:#3F02F7"/>
	<stop  offset="0.4672" style="stop-color:#3E09E7"/>
	<stop  offset="0.7531" style="stop-color:#3E14CE"/>
	<stop  offset="1" style="stop-color:#3D20B2"/>
</linearGradient>
<circle id="XMLID_142_" class="st20" cx="328.1" cy="202.9" r="0.7"/>
<linearGradient id="XMLID_21_" gradientUnits="userSpaceOnUse" x1="253.6091" y1="16150.5996" x2="255.5427" y2="16150.5996" gradientTransform="matrix(1 0 0 1 0 -16014)">
	<stop  offset="2.945171e-07" style="stop-color:#3F00FC"/>
	<stop  offset="0.2077" style="stop-color:#3F02F7"/>
	<stop  offset="0.4672" style="stop-color:#3E09E7"/>
	<stop  offset="0.7531" style="stop-color:#3E14CE"/>
	<stop  offset="1" style="stop-color:#3D20B2"/>
</linearGradient>
<circle id="XMLID_140_" class="st21" cx="254.6" cy="136.6" r="1"/>
<linearGradient id="XMLID_22_" gradientUnits="userSpaceOnUse" x1="259.151" y1="16271.2002" x2="262.7244" y2="16271.2002" gradientTransform="matrix(1 0 0 1 0 -16014)">
	<stop  offset="2.945171e-07" style="stop-color:#3F00FC"/>
	<stop  offset="0.2077" style="stop-color:#3F02F7"/>
	<stop  offset="0.4672" style="stop-color:#3E09E7"/>
	<stop  offset="0.7531" style="stop-color:#3E14CE"/>
	<stop  offset="1" style="stop-color:#3D20B2"/>
</linearGradient>
<circle id="XMLID_73_" class="st22" cx="260.9" cy="257.2" r="1.8"/>
<linearGradient id="XMLID_23_" gradientUnits="userSpaceOnUse" x1="244.2558" y1="16191.7998" x2="245.7064" y2="16191.7998" gradientTransform="matrix(1 0 0 1 0 -16014)">
	<stop  offset="2.945171e-07" style="stop-color:#3F00FC"/>
	<stop  offset="0.2077" style="stop-color:#3F02F7"/>
	<stop  offset="0.4672" style="stop-color:#3E09E7"/>
	<stop  offset="0.7531" style="stop-color:#3E14CE"/>
	<stop  offset="1" style="stop-color:#3D20B2"/>
</linearGradient>
<circle id="XMLID_72_" class="st23" cx="245" cy="177.8" r="0.7"/>
<linearGradient id="XMLID_24_" gradientUnits="userSpaceOnUse" x1="236.2674" y1="16300.4004" x2="238.201" y2="16300.4004" gradientTransform="matrix(1 0 0 1 0 -16014)">
	<stop  offset="2.945171e-07" style="stop-color:#3F00FC"/>
	<stop  offset="0.2077" style="stop-color:#3F02F7"/>
	<stop  offset="0.4672" style="stop-color:#3E09E7"/>
	<stop  offset="0.7531" style="stop-color:#3E14CE"/>
	<stop  offset="1" style="stop-color:#3D20B2"/>
</linearGradient>
<circle id="XMLID_71_" class="st24" cx="237.2" cy="286.4" r="1"/>
<linearGradient id="XMLID_25_" gradientUnits="userSpaceOnUse" x1="284.8" y1="16248.9004" x2="286.7336" y2="16248.9004" gradientTransform="matrix(1 0 0 1 0 -16014)">
	<stop  offset="2.945171e-07" style="stop-color:#3F00FC"/>
	<stop  offset="0.2077" style="stop-color:#3F02F7"/>
	<stop  offset="0.4672" style="stop-color:#3E09E7"/>
	<stop  offset="0.7531" style="stop-color:#3E14CE"/>
	<stop  offset="1" style="stop-color:#3D20B2"/>
</linearGradient>
<circle id="XMLID_70_" class="st25" cx="285.8" cy="234.9" r="1"/>
<linearGradient id="XMLID_26_" gradientUnits="userSpaceOnUse" x1="219.464" y1="16039.9004" x2="223.0374" y2="16039.9004" gradientTransform="matrix(1 0 0 1 0 -16014)">
	<stop  offset="2.945171e-07" style="stop-color:#3F00FC"/>
	<stop  offset="0.2077" style="stop-color:#3F02F7"/>
	<stop  offset="0.4672" style="stop-color:#3E09E7"/>
	<stop  offset="0.7531" style="stop-color:#3E14CE"/>
	<stop  offset="1" style="stop-color:#3D20B2"/>
</linearGradient>
<circle id="XMLID_369_" class="st26" cx="221.3" cy="25.9" r="1.8"/>
<linearGradient id="XMLID_27_" gradientUnits="userSpaceOnUse" x1="257.3643" y1="16098.5" x2="260.9377" y2="16098.5" gradientTransform="matrix(1 0 0 1 0 -16014)">
	<stop  offset="2.945171e-07" style="stop-color:#3F00FC"/>
	<stop  offset="0.2077" style="stop-color:#3F02F7"/>
	<stop  offset="0.4672" style="stop-color:#3E09E7"/>
	<stop  offset="0.7531" style="stop-color:#3E14CE"/>
	<stop  offset="1" style="stop-color:#3D20B2"/>
</linearGradient>
<circle id="XMLID_359_" class="st27" cx="259.2" cy="84.5" r="1.8"/>
<linearGradient id="XMLID_28_" gradientUnits="userSpaceOnUse" x1="271.8279" y1="16079.0996" x2="273.7615" y2="16079.0996" gradientTransform="matrix(1 0 0 1 0 -16014)">
	<stop  offset="2.945171e-07" style="stop-color:#3F00FC"/>
	<stop  offset="0.2077" style="stop-color:#3F02F7"/>
	<stop  offset="0.4672" style="stop-color:#3E09E7"/>
	<stop  offset="0.7531" style="stop-color:#3E14CE"/>
	<stop  offset="1" style="stop-color:#3D20B2"/>
</linearGradient>
<circle id="XMLID_358_" class="st28" cx="272.8" cy="65.1" r="1"/>
<g class="st29">
	<g>
		<line class="st30" x1="254.6" y1="0" x2="254.6" y2="297.1"/>
	</g>
</g>
<polygon class="st31" points="299.5,293.9 254.8,319.8 194,284.8 194,246 315,246 315,284.8 "/>
<g>
	<polygon class="st32" points="194.1,176.5 254.6,141.4 315.1,176.1 315.1,246.6 254.4,281.6 194.1,247 	"/>
	<polyline class="st32" points="195.6,177.2 254.8,211.5 314,176.8 254.8,142.9 195.6,177.2 	"/>
	<polygon class="st33" points="195.6,177.2 195.6,246.2 254.6,280.1 254.8,211.5 	"/>
	<polygon class="st34" points="254.8,211.5 314,176.8 314,245.8 254.6,280.1 	"/>
	<polygon class="st35" points="298.5,186 284.5,194.1 254.8,177.2 225.1,194.1 225.1,204.2 298.5,204.2 298.5,236.6 255,261.9 
		211.1,236.6 225.3,228.4 254.8,245.5 284.3,228.6 284.3,218.6 211.1,218.6 211.1,186.4 254.8,161.1 	"/>
</g>
</svg>
