<svg version="1.1" id="Layer_1" xmlns="http://www.w3.org/2000/svg" xmlns:xlink="http://www.w3.org/1999/xlink" x="0" y="0" viewBox="0 0 2083 2083" style="enable-background:new 0 0 2083 2083" xml:space="preserve"><style>.st8{opacity:.2;fill:#1d1b30;enable-background:new}.st71{fill:#fff}.st77{fill:#ec6b1c}.st78{fill:#f18d4a}.st79{fill:#d75814}</style><path d="m80.9 1636.9 467 273.8 244.5-145.1-455.5-264.5m902-163.5-154.7 73.1 488.7 295.2 390-262.1-458-186.2-266 80z" style="opacity:.17;fill:#1d1b30;enable-background:new"/><g style="opacity:.1"><path d="M1787.8 757.1c45.4 26.2 45.6 68.7.5 94.9-329.1 191.2-658.1 382.5-987.2 573.7-45.1 26.2-118.5 26.2-163.9 0-128.4-74.1-256.8-148.3-385.3-222.4-45.4-26.2-45.7-68.7-.6-94.9 329.1-191.2 658.1-382.5 987.2-573.7 45.1-26.2 118.5-26.2 163.9 0 128.6 74.1 257 148.2 385.4 222.4z"/><path d="M1833.1 815.9c-.7-5.4-1.7-9.2-2.2-10.9-.8-2.7-1.7-5.8-4.2-11.3-1.4-3.1-2.7-5.3-5-8.9-1.4-2.3-3.6-5.2-5.4-7.2-2.3-2.6-5.6-6-8.2-8.4-3-2.8-7.5-6-10.9-8.4-1.8-1.3-4.3-2.7-6.2-3.8-1-.6-2.2-.6-3.4.1 45.4 26.2 45.6 68.7.5 94.9l-987.2 573.7c-45.1 26.2-118.5 26.2-163.9 0l-385-222.4c-45.4-26.2-45.7-68.7-.6-94.9-1.2-.7-2.4-.7-3.5-.1-3.5 2.2-8 5.2-11.4 7.6-1.6 1.2-3.7 2.9-5.2 4.3-2.3 2.1-5.2 4.9-7.3 7.3-3.7 4.3-5.9 7.6-7.1 9.5-4.9 8-7 14.3-8.5 19.4-.9 3.1-1.6 6.7-2.1 10.8-.5 3.5-.5 6.1-.6 9.8v5.4c0 3.6.4 7.1 1.3 10.7-.9-3.5-1.3-7.1-1.3-10.7 0 9.9 1.6 17 3 22.1 2.6 9.2 6.9 16.2 8.3 18.5 1.6 2.6 4.2 6.1 5.8 7.9 2.5 2.8 6 6.4 8.8 9 3 2.7 7.4 5.8 10.7 8.2 1.7 1.2 4.2 2.6 6.1 3.7L633.7 1474c8.6 5 15.5 7.6 15.6 7.7 4.8 1.8 11.3 4.1 16.2 5.6 2.6.8 6 1.6 8.7 2.3 13.4 3.2 29.8 5.1 45 5.1 15.5 0 31.5-1.8 45.1-5.1 2.7-.6 6.2-1.5 8.8-2.3 4.9-1.6 11.3-3.8 16.1-5.7 2.5-1 5.8-2.5 8.2-3.7 2.2-1.1 5-2.7 7.1-3.8 1.2-.7 2.2-2.2 3.1-4.3-.8 2.1-1.9 3.6-3.1 4.3l394.9-229.5 592.3-344.2c3.4-2.1 7.8-4.9 10.9-7.3 3.1-2.4 6.9-5.8 9.8-8.5 1.9-1.8 4.3-4.6 5.9-6.7 1.8-2.3 3.9-5.5 5.4-8 2.7-4.4 5.8-11.6 7.1-16.7.8-3.1 1.6-6 2.2-10.7.6-4.3.7-7.2.8-10.8v-5.4c-.1-3.2-.1-6.3-.7-10.4zm-278-116.6c4.6 2.7 4.7 7 .1 9.7-4.6 2.7-12.1 2.7-16.7 0l-83.9-48.4c-4.6-2.7-4.7-7-.1-9.7 4.6-2.7 12.1-2.7 16.8 0l83.8 48.4zm-132.4-76.4c4.6 2.7 4.7 7 0 9.7-4.6 2.7-12.1 2.7-16.7 0s-4.7-7-.1-9.7c4.7-2.7 12.2-2.7 16.8 0z"/><path d="M520.3 1233.5c23.2 13.4 23.3 35.1.3 48.4-23 13.4-60.5 13.4-83.6 0-23.2-13.4-23.3-35.1-.3-48.4 23-13.4 60.4-13.4 83.6 0z"/><path d="M442.5 1239.4c23-13.4 60.5-13.4 83.6 0 2.3 1.3 4.4 2.8 6.2 4.3-2.9-3.7-6.9-7.2-12.2-10.2-23.2-13.4-60.6-13.4-83.6 0-20.7 12-22.6 30.8-6 44.2-9.7-12.7-5.8-28 12-38.3z"/></g><linearGradient id="SVGID_1_" gradientUnits="userSpaceOnUse" x1="207.662" y1="1123.8" x2="1811.988" y2="1123.8" gradientTransform="matrix(1 0 0 -1 0 2084)"><stop offset="0" style="stop-color:#4f3e90"/><stop offset="1" style="stop-color:#171a31"/></linearGradient><path d="M1777.8 737.1c45.4 26.2 45.6 68.7.5 94.9-329.1 191.2-658.1 382.5-987.2 573.7-45.1 26.2-118.5 26.2-163.9 0-128.4-74.1-256.8-148.3-385.3-222.4-45.4-26.2-45.7-68.7-.6-94.9 329.1-191.2 658.1-382.5 987.2-573.7 45.1-26.2 118.5-26.2 163.9 0 128.6 74.1 257 148.2 385.4 222.4z" style="fill:url(#SVGID_1_)"/><linearGradient id="SVGID_2_" gradientUnits="userSpaceOnUse" x1="865.24" y1="560.457" x2="1123.252" y2="1523.369" gradientTransform="matrix(1 0 0 -1 0 2084)"><stop offset="0" style="stop-color:#463780"/><stop offset=".143" style="stop-color:#382e68"/><stop offset=".331" style="stop-color:#292550"/><stop offset=".529" style="stop-color:#1f1f3f"/><stop offset=".743" style="stop-color:#191b34"/><stop offset="1" style="stop-color:#171a31"/></linearGradient><path d="M1823.1 795.9c-.7-5.4-1.7-9.2-2.2-10.9-.8-2.7-1.7-5.8-4.2-11.3-1.4-3.1-2.7-5.3-5-8.9-1.4-2.3-3.6-5.2-5.4-7.2-2.3-2.6-5.6-6-8.2-8.4-3-2.8-7.5-6-10.9-8.4-1.8-1.3-4.3-2.7-6.2-3.8-1-.6-2.2-.6-3.4.1 45.4 26.2 45.6 68.7.5 94.9l-987.2 573.7c-45.1 26.2-118.5 26.2-163.9 0l-385-222.4c-45.4-26.2-45.7-68.7-.6-94.9-1.2-.7-2.4-.7-3.5-.1-3.5 2.2-8 5.2-11.4 7.6-1.6 1.2-3.7 2.9-5.2 4.3-2.3 2.1-5.2 4.9-7.3 7.3-3.7 4.3-5.9 7.6-7.1 9.5-4.9 8-7 14.3-8.5 19.4-.9 3.1-1.6 6.7-2.1 10.8-.5 3.5-.5 6.1-.6 9.8v5.4c0 3.6.4 7.1 1.3 10.7-.9-3.5-1.3-7.1-1.3-10.7 0 9.9 1.6 17 3 22.1 2.6 9.2 6.9 16.2 8.3 18.5 1.6 2.6 4.2 6.1 5.8 7.9 2.5 2.8 6 6.4 8.8 9 3 2.7 7.4 5.8 10.7 8.2 1.7 1.2 4.2 2.6 6.1 3.7L623.7 1454c8.6 5 15.5 7.6 15.6 7.7 4.8 1.8 11.3 4.1 16.2 5.6 2.6.8 6 1.6 8.7 2.3 13.4 3.2 29.8 5.1 45 5.1 15.5 0 31.5-1.8 45.1-5.1 2.7-.6 6.2-1.5 8.8-2.3 4.9-1.6 11.3-3.8 16.1-5.7 2.5-1 5.8-2.5 8.2-3.7 2.2-1.1 5-2.7 7.1-3.8 1.2-.7 2.2-2.2 3.1-4.3-.8 2.1-1.9 3.6-3.1 4.3l394.9-229.5 592.3-344.2c3.4-2.1 7.8-4.9 10.9-7.3 3.1-2.4 6.9-5.8 9.8-8.5 1.9-1.8 4.3-4.6 5.9-6.7 1.8-2.3 3.9-5.5 5.4-8 2.7-4.4 5.8-11.6 7.1-16.7.8-3.1 1.6-6 2.2-10.7.6-4.3.7-7.2.8-10.8v-5.4c-.1-3.2-.1-6.3-.7-10.4z" style="fill:url(#SVGID_2_)"/><path d="M1545.1 679.3c4.6 2.7 4.7 7 .1 9.7-4.6 2.7-12.1 2.7-16.7 0l-83.9-48.4c-4.6-2.7-4.7-7-.1-9.7 4.6-2.7 12.1-2.7 16.8 0l83.8 48.4zm-132.4-76.4c4.6 2.7 4.7 7 0 9.7-4.6 2.7-12.1 2.7-16.7 0s-4.7-7-.1-9.7c4.7-2.7 12.2-2.7 16.8 0z" style="fill:#37474f"/><linearGradient id="SVGID_3_" gradientUnits="userSpaceOnUse" x1="409.525" y1="846.3" x2="527.775" y2="846.3" gradientTransform="matrix(1 0 0 -1 0 2084)"><stop offset="0" style="stop-color:#4f3e90"/><stop offset="1" style="stop-color:#171a31"/></linearGradient><path d="M510.3 1213.5c23.2 13.4 23.3 35.1.3 48.4-23 13.4-60.5 13.4-83.6 0-23.2-13.4-23.3-35.1-.3-48.4 23-13.4 60.4-13.4 83.6 0z" style="fill:url(#SVGID_3_)"/><path d="M432.5 1219.4c23-13.4 60.5-13.4 83.6 0 2.3 1.3 4.4 2.8 6.2 4.3-2.9-3.7-6.9-7.2-12.2-10.2-23.2-13.4-60.6-13.4-83.6 0-20.7 12-22.6 30.8-6 44.2-9.7-12.7-5.8-28 12-38.3z" style="fill:#263238"/><linearGradient id="SVGID_4_" gradientUnits="userSpaceOnUse" x1="320.213" y1="1121.513" x2="1675.975" y2="1121.513" gradientTransform="matrix(1 0 0 -1 0 2084)"><stop offset="0" style="stop-color:#7f00ff"/><stop offset="1" style="stop-color:#3f00fc"/></linearGradient><path d="m326.5 1080.1 476.6 275c3.9 2.3 8.7 2.3 12.6 0l853.9-487.8c8.5-4.9 8.5-17.2 0-22l-483.1-275.5c-3.9-2.2-8.7-2.2-12.6 0l-847.3 488.3c-8.5 4.9-8.5 17.1-.1 22z" style="fill:url(#SVGID_4_)"/><path id="XMLID_280_" class="st8" d="m1184.7 760.3 160.9 100.8-159.9 100.7-160.9-100.7 159.9-100.8z"/><g id="XMLID_86_"><linearGradient id="XMLID_3_" gradientUnits="userSpaceOnUse" x1="1158.931" y1="16524.06" x2="1210.176" y2="16332.814" gradientTransform="translate(0 -15670)"><stop offset="0" style="stop-color:#4f3e90"/><stop offset="1" style="stop-color:#171a31"/></linearGradient><path id="XMLID_168_" d="m1184 655.8 177.8 102.6-176.6 102.7-177.9-102.6L1184 655.8z" style="fill:url(#XMLID_3_)"/><linearGradient id="XMLID_4_" gradientUnits="userSpaceOnUse" x1="1085.059" y1="16538.867" x2="1107.441" y2="16455.332" gradientTransform="translate(0 -15670)"><stop offset="0" style="stop-color:#7f00ff"/><stop offset="1" style="stop-color:#3f00fc"/></linearGradient><path id="XMLID_122_" d="m1007.3 758.5-.1 34.6 178 102.6v-34.6l-177.9-102.6z" style="fill:url(#XMLID_4_)"/><linearGradient id="XMLID_5_" gradientUnits="userSpaceOnUse" x1="1273.55" y1="16565.801" x2="1273.55" y2="16428.5" gradientTransform="translate(0 -15670)"><stop offset="0" style="stop-color:#463780"/><stop offset=".143" style="stop-color:#382e68"/><stop offset=".331" style="stop-color:#292550"/><stop offset=".529" style="stop-color:#1f1f3f"/><stop offset=".743" style="stop-color:#191b34"/><stop offset="1" style="stop-color:#171a31"/></linearGradient><path id="XMLID_117_" d="M1185.2 895.8v-34.7l176.7-102.6-.1 34.6-176.6 102.7z" style="fill:url(#XMLID_5_)"/></g><g id="XMLID_66_"><linearGradient id="XMLID_6_" gradientUnits="userSpaceOnUse" x1="1158.944" y1="16459.465" x2="1210.163" y2="16268.31" gradientTransform="translate(0 -15670)"><stop offset="0" style="stop-color:#4f3e90"/><stop offset="1" style="stop-color:#171a31"/></linearGradient><path id="XMLID_76_" d="m1184 591.3 177.8 102.6-176.6 102.6-177.9-102.6L1184 591.3z" style="fill:url(#XMLID_6_)"/><linearGradient id="XMLID_7_" gradientUnits="userSpaceOnUse" x1="1085.059" y1="16474.367" x2="1107.441" y2="16390.832" gradientTransform="translate(0 -15670)"><stop offset="0" style="stop-color:#7f00ff"/><stop offset="1" style="stop-color:#3f00fc"/></linearGradient><path id="XMLID_69_" d="m1007.3 694-.1 34.5 178 102.7v-34.6L1007.3 694z" style="fill:url(#XMLID_7_)"/><linearGradient id="XMLID_8_" gradientUnits="userSpaceOnUse" x1="1273.55" y1="16501.199" x2="1273.55" y2="16363.9" gradientTransform="translate(0 -15670)"><stop offset="0" style="stop-color:#463780"/><stop offset=".143" style="stop-color:#382e68"/><stop offset=".331" style="stop-color:#292550"/><stop offset=".529" style="stop-color:#1f1f3f"/><stop offset=".743" style="stop-color:#191b34"/><stop offset="1" style="stop-color:#171a31"/></linearGradient><path id="XMLID_68_" d="M1185.2 831.2v-34.6l176.7-102.7-.1 34.7-176.6 102.6z" style="fill:url(#XMLID_8_)"/></g><g id="XMLID_62_"><linearGradient id="XMLID_9_" gradientUnits="userSpaceOnUse" x1="1158.931" y1="16394.961" x2="1210.176" y2="16203.714" gradientTransform="translate(0 -15670)"><stop offset="0" style="stop-color:#4f3e90"/><stop offset="1" style="stop-color:#171a31"/></linearGradient><path id="XMLID_65_" d="m1184 526.7 177.8 102.6L1185.2 732l-177.9-102.6L1184 526.7z" style="fill:url(#XMLID_9_)"/><linearGradient id="XMLID_10_" gradientUnits="userSpaceOnUse" x1="1085.059" y1="16409.768" x2="1107.441" y2="16326.232" gradientTransform="translate(0 -15670)"><stop offset="0" style="stop-color:#7f00ff"/><stop offset="1" style="stop-color:#3f00fc"/></linearGradient><path id="XMLID_64_" d="m1007.3 629.4-.1 34.6 178 102.6V732l-177.9-102.6z" style="fill:url(#XMLID_10_)"/><linearGradient id="XMLID_11_" gradientUnits="userSpaceOnUse" x1="1273.55" y1="16436.6" x2="1273.55" y2="16299.4" gradientTransform="translate(0 -15670)"><stop offset="0" style="stop-color:#463780"/><stop offset=".143" style="stop-color:#382e68"/><stop offset=".331" style="stop-color:#292550"/><stop offset=".529" style="stop-color:#1f1f3f"/><stop offset=".743" style="stop-color:#191b34"/><stop offset="1" style="stop-color:#171a31"/></linearGradient><path id="XMLID_63_" d="M1185.2 766.6V732l176.7-102.6-.1 34.6-176.6 102.6z" style="fill:url(#XMLID_11_)"/></g><g id="XMLID_55_"><linearGradient id="XMLID_12_" gradientUnits="userSpaceOnUse" x1="1158.944" y1="16330.364" x2="1210.188" y2="16139.117" gradientTransform="translate(0 -15670)"><stop offset="0" style="stop-color:#4f3e90"/><stop offset="1" style="stop-color:#171a31"/></linearGradient><path id="XMLID_59_" d="m1184 462.1 177.8 102.7-176.6 102.6-177.9-102.6L1184 462.1z" style="fill:url(#XMLID_12_)"/><linearGradient id="XMLID_13_" gradientUnits="userSpaceOnUse" x1="1085.046" y1="16345.264" x2="1107.454" y2="16261.636" gradientTransform="translate(0 -15670)"><stop offset="0" style="stop-color:#7f00ff"/><stop offset="1" style="stop-color:#3f00fc"/></linearGradient><path id="XMLID_58_" d="m1007.3 564.8-.1 34.6 178 102.7v-34.6l-177.9-102.7z" style="fill:url(#XMLID_13_)"/><linearGradient id="XMLID_14_" gradientUnits="userSpaceOnUse" x1="1273.55" y1="16372.1" x2="1273.55" y2="16234.8" gradientTransform="translate(0 -15670)"><stop offset="0" style="stop-color:#463780"/><stop offset=".143" style="stop-color:#382e68"/><stop offset=".331" style="stop-color:#292550"/><stop offset=".529" style="stop-color:#1f1f3f"/><stop offset=".743" style="stop-color:#191b34"/><stop offset="1" style="stop-color:#171a31"/></linearGradient><path id="XMLID_56_" d="M1185.2 702.1v-34.6l176.7-102.7-.1 34.7-176.6 102.6z" style="fill:url(#XMLID_14_)"/></g><g id="XMLID_51_"><linearGradient id="XMLID_15_" gradientUnits="userSpaceOnUse" x1="1158.956" y1="16265.768" x2="1210.176" y2="16074.614" gradientTransform="translate(0 -15670)"><stop offset="0" style="stop-color:#4f3e90"/><stop offset="1" style="stop-color:#171a31"/></linearGradient><path id="XMLID_54_" d="m1184 397.6 177.8 102.6-176.6 102.6-177.9-102.5L1184 397.6z" style="fill:url(#XMLID_15_)"/><linearGradient id="XMLID_16_" gradientUnits="userSpaceOnUse" x1="1085.059" y1="16280.667" x2="1107.441" y2="16197.133" gradientTransform="translate(0 -15670)"><stop offset="0" style="stop-color:#7f00ff"/><stop offset="1" style="stop-color:#3f00fc"/></linearGradient><path id="XMLID_53_" d="m1007.3 500.3-.1 34.6 178 102.6v-34.6l-177.9-102.6z" style="fill:url(#XMLID_16_)"/><linearGradient id="XMLID_17_" gradientUnits="userSpaceOnUse" x1="1273.55" y1="16307.5" x2="1273.55" y2="16170.3" gradientTransform="translate(0 -15670)"><stop offset="0" style="stop-color:#463780"/><stop offset=".143" style="stop-color:#382e68"/><stop offset=".331" style="stop-color:#292550"/><stop offset=".529" style="stop-color:#1f1f3f"/><stop offset=".743" style="stop-color:#191b34"/><stop offset="1" style="stop-color:#171a31"/></linearGradient><path id="XMLID_52_" d="M1185.2 637.5v-34.6l176.7-102.6-.1 34.6-176.6 102.6z" style="fill:url(#XMLID_17_)"/></g><linearGradient id="XMLID_18_" gradientUnits="userSpaceOnUse" x1="1169.889" y1="16224.69" x2="1200.511" y2="16110.409" gradientTransform="translate(0 -15670)"><stop offset="0" style="stop-color:#7f00ff;stop-opacity:.4"/><stop offset="1" style="stop-color:#3f00fc"/></linearGradient><path id="XMLID_50_" d="m1184.8 436.2 106.4 61.3-105.6 61.4-106.4-61.3 105.6-61.4z" style="fill:url(#XMLID_18_)"/><g id="XMLID_34_"><defs><path id="SVGID_5_" d="m1184.8 436.2 106.4 61.3-105.6 61.4-106.4-61.3z"/></defs><clipPath id="SVGID_6_"><use xlink:href="#SVGID_5_" style="overflow:visible"/></clipPath><linearGradient id="XMLID_19_" gradientUnits="userSpaceOnUse" x1="1169.836" y1="16129.51" x2="1200.564" y2="16244.19" gradientTransform="translate(0 -15670)"><stop offset="0" style="stop-color:#7f00ff;stop-opacity:.7"/><stop offset="1" style="stop-color:#3f00fc;stop-opacity:.6"/></linearGradient><path id="XMLID_49_" d="m1184.8 455.5 106.4 61.3-105.6 61.4-106.4-61.3 105.6-61.4z" style="clip-path:url(#SVGID_6_);fill:url(#XMLID_19_)"/><defs><path id="SVGID_7_" d="m1184.8 436.2 106.4 61.3-105.6 61.4-106.4-61.3z"/></defs><clipPath id="SVGID_8_"><use xlink:href="#SVGID_7_" style="overflow:visible"/></clipPath><linearGradient id="XMLID_20_" gradientUnits="userSpaceOnUse" x1="1169.823" y1="16148.413" x2="1200.552" y2="16263.094" gradientTransform="translate(0 -15670)"><stop offset="0" style="stop-color:#7f00ff;stop-opacity:.7"/><stop offset="1" style="stop-color:#3f00fc;stop-opacity:.6"/></linearGradient><path id="XMLID_47_" d="m1184.8 474.4 106.4 61.4-105.6 61.3-106.4-61.3 105.6-61.4z" style="clip-path:url(#SVGID_8_);fill:url(#XMLID_20_)"/><defs><path id="SVGID_9_" d="m1184.8 436.2 106.4 61.3-105.6 61.4-106.4-61.3z"/></defs><clipPath id="SVGID_10_"><use xlink:href="#SVGID_9_" style="overflow:visible"/></clipPath><linearGradient id="XMLID_21_" gradientUnits="userSpaceOnUse" x1="1169.823" y1="16167.314" x2="1200.577" y2="16282.087" gradientTransform="translate(0 -15670)"><stop offset="0" style="stop-color:#7f00ff;stop-opacity:.7"/><stop offset="1" style="stop-color:#3f00fc;stop-opacity:.6"/></linearGradient><path id="XMLID_46_" d="m1184.8 493.3 106.4 61.4-105.6 61.4-106.4-61.4 105.6-61.4z" style="clip-path:url(#SVGID_10_);fill:url(#XMLID_21_)"/><defs><path id="SVGID_11_" d="m1184.8 436.2 106.4 61.3-105.6 61.4-106.4-61.3z"/></defs><clipPath id="SVGID_12_"><use xlink:href="#SVGID_11_" style="overflow:visible"/></clipPath><linearGradient id="XMLID_22_" gradientUnits="userSpaceOnUse" x1="1169.848" y1="16186.307" x2="1200.577" y2="16300.987" gradientTransform="translate(0 -15670)"><stop offset="0" style="stop-color:#7f00ff;stop-opacity:.7"/><stop offset="1" style="stop-color:#3f00fc;stop-opacity:.6"/></linearGradient><path id="XMLID_45_" d="m1184.8 512.3 106.4 61.3-105.6 61.4-106.4-61.4 105.6-61.3z" style="clip-path:url(#SVGID_12_);fill:url(#XMLID_22_)"/><defs><path id="SVGID_13_" d="m1184.8 436.2 106.4 61.3-105.6 61.4-106.4-61.3z"/></defs><clipPath id="SVGID_14_"><use xlink:href="#SVGID_13_" style="overflow:visible"/></clipPath><linearGradient id="XMLID_24_" gradientUnits="userSpaceOnUse" x1="1169.836" y1="16205.21" x2="1200.564" y2="16319.891" gradientTransform="translate(0 -15670)"><stop offset="0" style="stop-color:#7f00ff;stop-opacity:.7"/><stop offset="1" style="stop-color:#3f00fc;stop-opacity:.6"/></linearGradient><path id="XMLID_43_" d="m1184.8 531.2 106.4 61.3-105.6 61.4-106.4-61.3 105.6-61.4z" style="clip-path:url(#SVGID_14_);fill:url(#XMLID_24_)"/><defs><path id="SVGID_15_" d="m1184.8 436.2 106.4 61.3-105.6 61.4-106.4-61.3z"/></defs><clipPath id="SVGID_16_"><use xlink:href="#SVGID_15_" style="overflow:visible"/></clipPath><linearGradient id="XMLID_25_" gradientUnits="userSpaceOnUse" x1="1169.823" y1="16224.113" x2="1200.552" y2="16338.794" gradientTransform="translate(0 -15670)"><stop offset="0" style="stop-color:#7f00ff;stop-opacity:.7"/><stop offset="1" style="stop-color:#3f00fc;stop-opacity:.6"/></linearGradient><path id="XMLID_40_" d="m1184.8 550.1 106.4 61.4-105.6 61.3-106.4-61.3 105.6-61.4z" style="clip-path:url(#SVGID_16_);fill:url(#XMLID_25_)"/><defs><path id="SVGID_17_" d="m1184.8 436.2 106.4 61.3-105.6 61.4-106.4-61.3z"/></defs><clipPath id="SVGID_18_"><use xlink:href="#SVGID_17_" style="overflow:visible"/></clipPath><linearGradient id="XMLID_26_" gradientUnits="userSpaceOnUse" x1="1169.823" y1="16243.013" x2="1200.577" y2="16357.787" gradientTransform="translate(0 -15670)"><stop offset="0" style="stop-color:#7f00ff;stop-opacity:.7"/><stop offset="1" style="stop-color:#3f00fc;stop-opacity:.6"/></linearGradient><path id="XMLID_38_" d="m1184.8 569 106.4 61.4-105.6 61.4-106.4-61.4 105.6-61.4z" style="clip-path:url(#SVGID_18_);fill:url(#XMLID_26_)"/><defs><path id="SVGID_19_" d="m1184.8 436.2 106.4 61.3-105.6 61.4-106.4-61.3z"/></defs><clipPath id="SVGID_20_"><use xlink:href="#SVGID_19_" style="overflow:visible"/></clipPath><linearGradient id="XMLID_29_" gradientUnits="userSpaceOnUse" x1="1169.836" y1="16262.01" x2="1200.564" y2="16376.69" gradientTransform="translate(0 -15670)"><stop offset="0" style="stop-color:#7f00ff;stop-opacity:.7"/><stop offset="1" style="stop-color:#3f00fc;stop-opacity:.6"/></linearGradient><path id="XMLID_37_" d="m1184.8 588 106.4 61.3-105.6 61.4-106.4-61.3 105.6-61.4z" style="clip-path:url(#SVGID_20_);fill:url(#XMLID_29_)"/></g><linearGradient id="XMLID_35_" gradientUnits="userSpaceOnUse" x1="1136.545" y1="16213.943" x2="1232.648" y2="15855.282" gradientTransform="translate(0 -15670)"><stop offset="0" style="stop-color:#fff;stop-opacity:0"/><stop offset="1" style="stop-color:#fff;stop-opacity:.3"/></linearGradient><path id="XMLID_33_" d="m1184.2 172.3-105.6 61.4v261.8l106.3 61.4 105.7-61.4V233.6l-106.4-61.3z" style="fill:url(#XMLID_35_)"/><linearGradient id="XMLID_36_" gradientUnits="userSpaceOnUse" x1="1149.162" y1="16156.4" x2="1159.281" y2="16156.4" gradientTransform="translate(0 -15670)"><stop offset="0" style="stop-color:#fff;stop-opacity:.6"/><stop offset="1" style="stop-color:#fff"/></linearGradient><circle id="XMLID_32_" cx="1154.2" cy="486.4" r="5.1" style="opacity:.6;fill:url(#XMLID_36_);enable-background:new"/><linearGradient id="XMLID_39_" gradientUnits="userSpaceOnUse" x1="1112.044" y1="16059.2" x2="1116.151" y2="16059.2" gradientTransform="translate(0 -15670)"><stop offset="0" style="stop-color:#fff;stop-opacity:.6"/><stop offset="1" style="stop-color:#fff"/></linearGradient><circle id="XMLID_31_" cx="1114.1" cy="389.2" r="2.1" style="opacity:.4;fill:url(#XMLID_39_);enable-background:new"/><linearGradient id="XMLID_41_" gradientUnits="userSpaceOnUse" x1="1247.308" y1="16080" x2="1252.783" y2="16080" gradientTransform="translate(0 -15670)"><stop offset="0" style="stop-color:#fff;stop-opacity:.6"/><stop offset="1" style="stop-color:#fff"/></linearGradient><circle id="XMLID_27_" cx="1250" cy="410" r="2.7" style="opacity:.5;fill:url(#XMLID_41_);enable-background:new"/><linearGradient id="XMLID_44_" gradientUnits="userSpaceOnUse" x1="1190.119" y1="16101.5" x2="1195.594" y2="16101.5" gradientTransform="translate(0 -15670)"><stop offset="0" style="stop-color:#fff;stop-opacity:.6"/><stop offset="1" style="stop-color:#fff"/></linearGradient><circle id="XMLID_30_" cx="1192.9" cy="431.5" r="2.7" style="opacity:.55;fill:url(#XMLID_44_);enable-background:new"/><linearGradient id="XMLID_48_" gradientUnits="userSpaceOnUse" x1="1437.33" y1="15965" x2="1442.44" y2="15965" gradientTransform="translate(0 -15670)"><stop offset="0" style="stop-color:#fff;stop-opacity:.6"/><stop offset="1" style="stop-color:#fff"/></linearGradient><circle id="XMLID_42_" cx="1439.9" cy="295" r="2.6" style="opacity:.4;fill:url(#XMLID_48_);enable-background:new"/><linearGradient id="XMLID_57_" gradientUnits="userSpaceOnUse" x1="1501.827" y1="16143.4" x2="1511.946" y2="16143.4" gradientTransform="translate(0 -15670)"><stop offset="0" style="stop-color:#fff;stop-opacity:.6"/><stop offset="1" style="stop-color:#fff"/></linearGradient><circle id="XMLID_369_" cx="1506.9" cy="473.4" r="5.1" style="opacity:.6;fill:url(#XMLID_57_);enable-background:new"/><linearGradient id="XMLID_60_" gradientUnits="userSpaceOnUse" x1="1606.66" y1="16072.3" x2="1612.136" y2="16072.3" gradientTransform="translate(0 -15670)"><stop offset="0" style="stop-color:#fff;stop-opacity:.6"/><stop offset="1" style="stop-color:#fff"/></linearGradient><circle id="XMLID_368_" cx="1609.4" cy="402.3" r="2.7" style="opacity:.5;fill:url(#XMLID_60_);enable-background:new"/><linearGradient id="XMLID_61_" gradientUnits="userSpaceOnUse" x1="613.185" y1="16035.7" x2="618.294" y2="16035.7" gradientTransform="translate(0 -15670)"><stop offset="0" style="stop-color:#fff;stop-opacity:.6"/><stop offset="1" style="stop-color:#fff"/></linearGradient><circle id="XMLID_360_" cx="615.7" cy="365.7" r="2.6" style="opacity:.4;fill:url(#XMLID_61_);enable-background:new"/><linearGradient id="XMLID_67_" gradientUnits="userSpaceOnUse" x1="802.186" y1="16040.7" x2="812.305" y2="16040.7" gradientTransform="translate(0 -15670)"><stop offset="0" style="stop-color:#fff;stop-opacity:.6"/><stop offset="1" style="stop-color:#fff"/></linearGradient><circle id="XMLID_359_" cx="807.2" cy="370.7" r="5.1" style="opacity:.6;fill:url(#XMLID_67_);enable-background:new"/><linearGradient id="XMLID_70_" gradientUnits="userSpaceOnUse" x1="849.83" y1="15991.1" x2="855.305" y2="15991.1" gradientTransform="translate(0 -15670)"><stop offset="0" style="stop-color:#fff;stop-opacity:.6"/><stop offset="1" style="stop-color:#fff"/></linearGradient><circle id="XMLID_28_" cx="852.6" cy="321.1" r="2.7" style="opacity:.55;fill:url(#XMLID_70_);enable-background:new"/><path id="XMLID_23_" class="st8" d="m935.2 910.6 149 92.7-148 92.7-149-92.6 148-92.8z"/><g id="XMLID_164_"><linearGradient id="XMLID_71_" gradientUnits="userSpaceOnUse" x1="910.09" y1="16667.777" x2="961.31" y2="16476.623" gradientTransform="translate(0 -15670)"><stop offset="0" style="stop-color:#4f3e90"/><stop offset="1" style="stop-color:#171a31"/></linearGradient><path id="XMLID_167_" d="m935.1 799.6 177.8 102.6-176.6 102.6-177.8-102.6 176.6-102.6z" style="fill:url(#XMLID_71_)"/><linearGradient id="XMLID_72_" gradientUnits="userSpaceOnUse" x1="836.205" y1="16682.68" x2="858.595" y2="16599.121" gradientTransform="translate(0 -15670)"><stop offset="0" style="stop-color:#7f00ff"/><stop offset="1" style="stop-color:#3f00fc"/></linearGradient><path id="XMLID_166_" d="m758.5 902.3-.2 34.6 178 102.6v-34.6L758.5 902.3z" style="fill:url(#XMLID_72_)"/><linearGradient id="XMLID_73_" gradientUnits="userSpaceOnUse" x1="1024.65" y1="16709.5" x2="1024.65" y2="16572.301" gradientTransform="translate(0 -15670)"><stop offset="0" style="stop-color:#463780"/><stop offset=".143" style="stop-color:#382e68"/><stop offset=".331" style="stop-color:#292550"/><stop offset=".529" style="stop-color:#1f1f3f"/><stop offset=".743" style="stop-color:#191b34"/><stop offset="1" style="stop-color:#171a31"/></linearGradient><path id="XMLID_165_" d="M936.3 1039.5v-34.6L1113 902.3l-.1 34.6-176.6 102.6z" style="fill:url(#XMLID_73_)"/></g><g id="XMLID_160_"><linearGradient id="XMLID_74_" gradientUnits="userSpaceOnUse" x1="910.078" y1="16603.273" x2="961.322" y2="16412.025" gradientTransform="translate(0 -15670)"><stop offset="0" style="stop-color:#4f3e90"/><stop offset="1" style="stop-color:#171a31"/></linearGradient><path id="XMLID_163_" d="m935.1 735 177.8 102.6-176.6 102.7-177.8-102.6L935.1 735z" style="fill:url(#XMLID_74_)"/><linearGradient id="XMLID_75_" gradientUnits="userSpaceOnUse" x1="836.205" y1="16618.08" x2="858.595" y2="16534.519" gradientTransform="translate(0 -15670)"><stop offset="0" style="stop-color:#7f00ff"/><stop offset="1" style="stop-color:#3f00fc"/></linearGradient><path id="XMLID_162_" d="m758.5 837.7-.2 34.6 178 102.6v-34.6L758.5 837.7z" style="fill:url(#XMLID_75_)"/><linearGradient id="XMLID_77_" gradientUnits="userSpaceOnUse" x1="1024.65" y1="16644.9" x2="1024.65" y2="16507.699" gradientTransform="translate(0 -15670)"><stop offset="0" style="stop-color:#463780"/><stop offset=".143" style="stop-color:#382e68"/><stop offset=".331" style="stop-color:#292550"/><stop offset=".529" style="stop-color:#1f1f3f"/><stop offset=".743" style="stop-color:#191b34"/><stop offset="1" style="stop-color:#171a31"/></linearGradient><path id="XMLID_161_" d="M936.3 974.9v-34.6L1113 837.7l-.1 34.6-176.6 102.6z" style="fill:url(#XMLID_77_)"/></g><g id="XMLID_156_"><linearGradient id="XMLID_78_" gradientUnits="userSpaceOnUse" x1="910.09" y1="16538.678" x2="961.31" y2="16347.523" gradientTransform="translate(0 -15670)"><stop offset="0" style="stop-color:#4f3e90"/><stop offset="1" style="stop-color:#171a31"/></linearGradient><path id="XMLID_159_" d="m935.1 670.5 177.8 102.6-176.6 102.6-177.8-102.6 176.6-102.6z" style="fill:url(#XMLID_78_)"/><linearGradient id="XMLID_79_" gradientUnits="userSpaceOnUse" x1="836.205" y1="16553.58" x2="858.595" y2="16470.019" gradientTransform="translate(0 -15670)"><stop offset="0" style="stop-color:#7f00ff"/><stop offset="1" style="stop-color:#3f00fc"/></linearGradient><path id="XMLID_158_" d="m758.5 773.2-.2 34.5 178 102.7v-34.6L758.5 773.2z" style="fill:url(#XMLID_79_)"/><linearGradient id="XMLID_80_" gradientUnits="userSpaceOnUse" x1="1024.65" y1="16580.4" x2="1024.65" y2="16443.1" gradientTransform="translate(0 -15670)"><stop offset="0" style="stop-color:#463780"/><stop offset=".143" style="stop-color:#382e68"/><stop offset=".331" style="stop-color:#292550"/><stop offset=".529" style="stop-color:#1f1f3f"/><stop offset=".743" style="stop-color:#191b34"/><stop offset="1" style="stop-color:#171a31"/></linearGradient><path id="XMLID_157_" d="M936.3 910.4v-34.6L1113 773.1l-.1 34.7-176.6 102.6z" style="fill:url(#XMLID_80_)"/></g><linearGradient id="XMLID_81_" gradientUnits="userSpaceOnUse" x1="920.976" y1="16497.586" x2="951.63" y2="16383.189" gradientTransform="translate(0 -15670)"><stop offset="0" style="stop-color:#7f00ff;stop-opacity:.4"/><stop offset="1" style="stop-color:#3f00fc"/></linearGradient><path id="XMLID_155_" d="m936 709 106.3 61.4-105.6 61.4-106.4-61.4L936 709z" style="fill:url(#XMLID_81_)"/><g id="XMLID_145_"><defs><path id="SVGID_21_" d="m936 709 106.3 61.4-105.6 61.4-106.4-61.4z"/></defs><clipPath id="SVGID_22_"><use xlink:href="#SVGID_21_" style="overflow:visible"/></clipPath><linearGradient id="XMLID_82_" gradientUnits="userSpaceOnUse" x1="920.93" y1="16402.338" x2="951.677" y2="16517.088" gradientTransform="translate(0 -15670)"><stop offset="0" style="stop-color:#7f00ff;stop-opacity:.7"/><stop offset="1" style="stop-color:#3f00fc;stop-opacity:.6"/></linearGradient><path id="XMLID_154_" d="m936 728.3 106.3 61.4-105.6 61.4-106.4-61.4L936 728.3z" style="clip-path:url(#SVGID_22_);fill:url(#XMLID_82_)"/><defs><path id="SVGID_23_" d="m936 709 106.3 61.4-105.6 61.4-106.4-61.4z"/></defs><clipPath id="SVGID_24_"><use xlink:href="#SVGID_23_" style="overflow:visible"/></clipPath><linearGradient id="XMLID_83_" gradientUnits="userSpaceOnUse" x1="920.942" y1="16421.334" x2="951.664" y2="16535.99" gradientTransform="translate(0 -15670)"><stop offset="0" style="stop-color:#7f00ff;stop-opacity:.7"/><stop offset="1" style="stop-color:#3f00fc;stop-opacity:.6"/></linearGradient><path id="XMLID_153_" d="m936 747.3 106.3 61.3L936.7 870l-106.4-61.3L936 747.3z" style="clip-path:url(#SVGID_24_);fill:url(#XMLID_83_)"/><defs><path id="SVGID_25_" d="m936 709 106.3 61.4-105.6 61.4-106.4-61.4z"/></defs><clipPath id="SVGID_26_"><use xlink:href="#SVGID_25_" style="overflow:visible"/></clipPath><linearGradient id="XMLID_84_" gradientUnits="userSpaceOnUse" x1="920.93" y1="16440.238" x2="951.652" y2="16554.894" gradientTransform="translate(0 -15670)"><stop offset="0" style="stop-color:#7f00ff;stop-opacity:.7"/><stop offset="1" style="stop-color:#3f00fc;stop-opacity:.6"/></linearGradient><path id="XMLID_152_" d="m936 766.2 106.3 61.4-105.6 61.3-106.4-61.3L936 766.2z" style="clip-path:url(#SVGID_26_);fill:url(#XMLID_84_)"/><defs><path id="SVGID_27_" d="m936 709 106.3 61.4-105.6 61.4-106.4-61.4z"/></defs><clipPath id="SVGID_28_"><use xlink:href="#SVGID_27_" style="overflow:visible"/></clipPath><linearGradient id="XMLID_85_" gradientUnits="userSpaceOnUse" x1="920.93" y1="16459.139" x2="951.677" y2="16573.887" gradientTransform="translate(0 -15670)"><stop offset="0" style="stop-color:#7f00ff;stop-opacity:.7"/><stop offset="1" style="stop-color:#3f00fc;stop-opacity:.6"/></linearGradient><path id="XMLID_151_" d="m936 785.1 106.3 61.4-105.6 61.4-106.4-61.4L936 785.1z" style="clip-path:url(#SVGID_28_);fill:url(#XMLID_85_)"/><defs><path id="SVGID_29_" d="m936 709 106.3 61.4-105.6 61.4-106.4-61.4z"/></defs><clipPath id="SVGID_30_"><use xlink:href="#SVGID_29_" style="overflow:visible"/></clipPath><linearGradient id="XMLID_87_" gradientUnits="userSpaceOnUse" x1="920.955" y1="16478.131" x2="951.677" y2="16592.787" gradientTransform="translate(0 -15670)"><stop offset="0" style="stop-color:#7f00ff;stop-opacity:.7"/><stop offset="1" style="stop-color:#3f00fc;stop-opacity:.6"/></linearGradient><path id="XMLID_150_" d="m936 804.1 106.3 61.3-105.6 61.4-106.4-61.4L936 804.1z" style="clip-path:url(#SVGID_30_);fill:url(#XMLID_87_)"/><defs><path id="SVGID_31_" d="m936 709 106.3 61.4-105.6 61.4-106.4-61.4z"/></defs><clipPath id="SVGID_32_"><use xlink:href="#SVGID_31_" style="overflow:visible"/></clipPath><linearGradient id="XMLID_88_" gradientUnits="userSpaceOnUse" x1="920.942" y1="16497.035" x2="951.664" y2="16611.69" gradientTransform="translate(0 -15670)"><stop offset="0" style="stop-color:#7f00ff;stop-opacity:.7"/><stop offset="1" style="stop-color:#3f00fc;stop-opacity:.6"/></linearGradient><path id="XMLID_149_" d="m936 823 106.3 61.3-105.6 61.4-106.4-61.3L936 823z" style="clip-path:url(#SVGID_32_);fill:url(#XMLID_88_)"/><defs><path id="SVGID_33_" d="m936 709 106.3 61.4-105.6 61.4-106.4-61.4z"/></defs><clipPath id="SVGID_34_"><use xlink:href="#SVGID_33_" style="overflow:visible"/></clipPath><linearGradient id="XMLID_89_" gradientUnits="userSpaceOnUse" x1="920.93" y1="16515.938" x2="951.652" y2="16630.594" gradientTransform="translate(0 -15670)"><stop offset="0" style="stop-color:#7f00ff;stop-opacity:.7"/><stop offset="1" style="stop-color:#3f00fc;stop-opacity:.6"/></linearGradient><path id="XMLID_148_" d="m936 841.9 106.3 61.4-105.6 61.3-106.4-61.3L936 841.9z" style="clip-path:url(#SVGID_34_);fill:url(#XMLID_89_)"/><defs><path id="SVGID_35_" d="m936 709 106.3 61.4-105.6 61.4-106.4-61.4z"/></defs><clipPath id="SVGID_36_"><use xlink:href="#SVGID_35_" style="overflow:visible"/></clipPath><linearGradient id="XMLID_90_" gradientUnits="userSpaceOnUse" x1="920.93" y1="16534.838" x2="951.677" y2="16649.588" gradientTransform="translate(0 -15670)"><stop offset="0" style="stop-color:#7f00ff;stop-opacity:.7"/><stop offset="1" style="stop-color:#3f00fc;stop-opacity:.6"/></linearGradient><path id="XMLID_147_" d="m936 860.8 106.3 61.4-105.6 61.4-106.4-61.4L936 860.8z" style="clip-path:url(#SVGID_36_);fill:url(#XMLID_90_)"/></g><linearGradient id="XMLID_91_" gradientUnits="userSpaceOnUse" x1="887.664" y1="16486.721" x2="983.736" y2="16128.179" gradientTransform="translate(0 -15670)"><stop offset="0" style="stop-color:#fff;stop-opacity:0"/><stop offset="1" style="stop-color:#fff;stop-opacity:.3"/></linearGradient><path id="XMLID_144_" d="m935.3 445.2-105.6 61.3v261.9l106.4 61.3 105.6-61.3V506.5l-106.4-61.3z" style="fill:url(#XMLID_91_)"/><path d="M429.9 875.7v186m767-185v151.1m168.9-612v477.5m-356 0v233.4M644.6 732v242.9m142.6 28.4V1127m608.6-456.9v123.7M703.9 633.5v248.7M573 928.7v123.8m508.6-355.9v123.7M869.2 691.2v81.7m-180.3 242.3v37.3m616.6-120.3v51.6" style="fill:none;stroke:#ec6b1c;stroke-width:5;stroke-miterlimit:10"/><linearGradient id="SVGID_37_" gradientUnits="userSpaceOnUse" x1="46.6" y1="495.5" x2="835.9" y2="495.5" gradientTransform="matrix(1 0 0 -1 0 2084)"><stop offset="0" style="stop-color:#4f3e90"/><stop offset="1" style="stop-color:#171a31"/></linearGradient><path d="m46.6 1526.3 285.7-166.2 503.6 290.8-285.7 166-503.6-290.6z" style="fill:url(#SVGID_37_)"/><linearGradient id="SVGID_38_" gradientUnits="userSpaceOnUse" x1="486.554" y1="517.343" x2="510.646" y2="607.257" gradientTransform="matrix(1 0 0 -1 0 2084)"><stop offset="0" style="stop-color:#7f00ff"/><stop offset="1" style="stop-color:#3f00fc"/></linearGradient><path d="m352.6 1437.5 292 168.4" style="fill:none;stroke:url(#SVGID_38_);stroke-width:6;stroke-linecap:round;stroke-miterlimit:10"/><linearGradient id="SVGID_39_" gradientUnits="userSpaceOnUse" x1="428.804" y1="535.306" x2="447.396" y2="604.694" gradientTransform="matrix(1 0 0 -1 0 2084)"><stop offset="0" style="stop-color:#7f00ff"/><stop offset="1" style="stop-color:#3f00fc"/></linearGradient><path d="m328.3 1450.5 219.6 127" style="fill:none;stroke:url(#SVGID_39_);stroke-width:6;stroke-linecap:round;stroke-miterlimit:10"/><linearGradient id="SVGID_40_" gradientUnits="userSpaceOnUse" x1="421.09" y1="501.465" x2="442.411" y2="581.035" gradientTransform="matrix(1 0 0 -1 0 2084)"><stop offset="0" style="stop-color:#7f00ff"/><stop offset="1" style="stop-color:#3f00fc"/></linearGradient><path d="m300.9 1466.6 261.7 152.3" style="fill:none;stroke:url(#SVGID_40_);stroke-width:3;stroke-linecap:round;stroke-miterlimit:10"/><linearGradient id="SVGID_41_" gradientUnits="userSpaceOnUse" x1="446.236" y1="454.206" x2="473.965" y2="557.694" gradientTransform="matrix(1 0 0 -1 0 2084)"><stop offset="0" style="stop-color:#7f00ff"/><stop offset="1" style="stop-color:#3f00fc"/></linearGradient><path d="m284.9 1477.2 350.4 201.7" style="fill:none;stroke:url(#SVGID_41_);stroke-width:3;stroke-linecap:round;stroke-miterlimit:10"/><linearGradient id="SVGID_42_" gradientUnits="userSpaceOnUse" x1="390.112" y1="483.457" x2="411.088" y2="561.742" gradientTransform="matrix(1 0 0 -1 0 2084)"><stop offset="0" style="stop-color:#7f00ff"/><stop offset="1" style="stop-color:#3f00fc"/></linearGradient><path d="m269.6 1485.9 262 151" style="fill:none;stroke:url(#SVGID_42_);stroke-width:3;stroke-linecap:round;stroke-miterlimit:10"/><linearGradient id="SVGID_43_" gradientUnits="userSpaceOnUse" x1="1468.76" y1="479.87" x2="1601.874" y2="976.657" gradientTransform="matrix(1 0 0 -1 0 2084)"><stop offset="0" style="stop-color:#4f3e90"/><stop offset="1" style="stop-color:#171a31"/></linearGradient><path d="m1060.8 1339.3 445-257.7 504 290.7-443 258.1-506-291.1z" style="fill:url(#SVGID_43_)"/><ellipse class="st71" cx="1339.9" cy="1428.1" rx="8.3" ry="4.8"/><ellipse class="st71" cx="1357.5" cy="1438.2" rx="8.3" ry="4.8"/><ellipse class="st71" cx="1374.8" cy="1448.6" rx="8.3" ry="4.8"/><ellipse class="st71" cx="1392.5" cy="1458.6" rx="8.3" ry="4.8"/><ellipse class="st71" cx="1409.6" cy="1468.9" rx="8.3" ry="4.8"/><linearGradient id="SVGID_44_" gradientUnits="userSpaceOnUse" x1="1160.578" y1="901.76" x2="2036.422" y2="901.76" gradientTransform="matrix(1 0 0 -1 0 2084)"><stop offset="0" style="stop-color:#4f3e90"/><stop offset="1" style="stop-color:#171a31"/></linearGradient><path d="m1175.2 1146.7 488.5 281.5s42 20 81-5l283-164.5s23-21.3-5.7-40.7l-490.3-283s-46.5-18.9-84.2 8.8l-273.8 158.7c0-.1-30.5 19.7 1.5 44.2z" style="fill:url(#SVGID_44_)"/><linearGradient id="SVGID_45_" gradientUnits="userSpaceOnUse" x1="1160.578" y1="916.91" x2="2036.422" y2="916.91" gradientTransform="matrix(1 0 0 -1 0 2084)"><stop offset="0" style="stop-color:#7f00ff"/><stop offset="1" style="stop-color:#3f00fc"/></linearGradient><path d="m1175.2 1131.6 488.5 281.5s42 20 81-5l283-164.5s23-21.3-5.7-40.7l-490.3-283.1s-46.5-18.9-84.2 8.8l-273.8 158.7s-30.5 19.8 1.5 44.3z" style="fill:url(#SVGID_45_)"/><path d="m1388.7 963.5 59.9-34.9 563.3 325.3-59.8 34.7-563.4-325.1z" style="fill:#455a64"/><linearGradient id="SVGID_46_" gradientUnits="userSpaceOnUse" x1="1305.5" y1="1075.9" x2="1486.1" y2="1075.9"><stop offset="0" style="stop-color:#ec6b1c"/><stop offset="1" style="stop-color:#f18d4a"/></linearGradient><path d="m1305.5 1058.6 60-35 120.6 69.8-60 34.8-120.6-69.6z" style="fill:url(#SVGID_46_)"/><path d="m1466.5 1151.4 60-35 322.1 186.2-60.2 35-321.9-186.2z" style="fill:#cfd8dc"/><path class="st77" d="m1164.6 807.9 33.1-19.2 33.1 19v38.6l-33.2 19.2-33-19z"/><path class="st77" d="m1165.4 808.4 32.4 18.7 32.4-19-32.4-18.5-32.4 18.8"/><path class="st78" d="M1165.4 808.4v37.7l32.3 18.5.1-37.5z"/><path class="st79" d="m1197.8 827.1 32.4-19v37.8l-32.5 18.7z"/><path class="st71" d="m1221.7 813.2-7.6 4.4-16.3-9.2-16.2 9.2v5.5h40.1v17.7l-23.8 13.9-24-13.9 7.8-4.5 16.1 9.4 16.2-9.3V831h-40.1v-17.6l23.9-13.9z"/><path class="st77" d="m622.1 685 22.5-13 22.5 12.8V711l-22.6 13-22.4-12.8z"/><path class="st77" d="m622.7 685.3 22 12.7 22-12.9-22-12.6-22 12.8"/><path class="st78" d="M622.7 685.3v25.6l21.9 12.6.1-25.5z"/><path class="st79" d="m644.7 698 22-12.9v25.6l-22.1 12.8z"/><path class="st71" d="m660.9 688.5-5.2 3-11-6.2-11.1 6.2v3.8h27.3v12l-16.2 9.4-16.2-9.4 5.2-3 11 6.3 10.9-6.3v-3.7h-27.1v-11.9l16.2-9.4z"/><path class="st77" d="m656.6 950.3 32.3-18.7 32.3 18.5v37.7l-32.4 18.7-32.2-18.5z"/><path class="st77" d="m657.4 950.8 31.6 18.3 31.6-18.5-31.6-18.2-31.6 18.4"/><path class="st78" d="M657.4 950.8v36.8l31.5 18.1.1-36.6z"/><path class="st79" d="m689 969.1 31.6-18.5v36.8l-31.7 18.3z"/><path class="st71" d="m712.3 955.5-7.4 4.3-15.9-9-15.9 9v5.4h39.2v17.3L689.1 996l-23.4-13.5 7.5-4.4 15.8 9.1 15.8-9v-5.3h-39.1v-17.2l23.3-13.5z"/><path class="st77" d="m1273.2 863.5 32.3-18.8 32.3 18.6v37.6l-32.4 18.8-32.2-18.6z"/><path class="st77" d="m1274 863.9 31.6 18.3 31.6-18.5-31.6-18.1-31.6 18.3"/><path class="st78" d="M1274 863.9v36.8l31.5 18.2.1-36.7z"/><path class="st79" d="m1305.6 882.2 31.6-18.5v36.8l-31.7 18.4z"/><path class="st71" d="m1328.9 868.6-7.4 4.3-15.9-9-15.9 9v5.4h39.2v17.3l-23.2 13.5-23.4-13.5 7.5-4.4 15.8 9.1 15.8-9V886h-39.1v-17.2l23.3-13.5z"/><path class="st77" d="m552.1 865 22.5-13 22.5 12.8V891l-22.6 13-22.4-12.8z"/><path class="st77" d="m552.7 865.3 22 12.7 22-12.9-22-12.6-22 12.8"/><path class="st78" d="M552.7 865.3v25.6l21.9 12.6.1-25.5z"/><path class="st79" d="m574.7 878 22-12.9v25.6l-22.1 12.8z"/><path class="st71" d="m590.9 868.5-5.2 3-11-6.2-11.1 6.2v3.8h27.3v12l-16.2 9.4-16.2-9.4 5.2-3 11 6.3 10.9-6.3v-3.7h-27.1v-11.9l16.2-9.4z"/><path class="st77" d="m766.2 957.2 22.5-13 22.5 12.9v26.2l-22.6 13-22.4-12.9z"/><path class="st77" d="m766.8 957.5 22 12.8 21.9-12.9-21.9-12.6-22 12.7"/><path class="st78" d="M766.8 957.5v25.6l21.9 12.6.1-25.4z"/><path class="st79" d="m788.8 970.3 21.9-12.9V983l-22 12.7z"/><path class="st71" d="m805 960.8-5.2 3-11-6.3-11.1 6.3v3.7H805v12.1l-16.2 9.4-16.3-9.4 5.3-3.1 11 6.3 10.9-6.2v-3.7h-27.2v-12l16.3-9.4z"/><path class="st77" d="m986.1 845 22.5-13 22.5 12.8V871l-22.6 13-22.4-12.8z"/><path class="st77" d="m986.7 845.3 22 12.7 22-12.9-22-12.6-22 12.8"/><path class="st78" d="M986.7 845.3v25.6l21.9 12.6.1-25.5z"/><path class="st79" d="m1008.7 858 22-12.9v25.6l-22.1 12.8z"/><path class="st71" d="m1024.9 848.5-5.2 3-11-6.2-11.1 6.2v3.8h27.3v12l-16.2 9.4-16.2-9.4 5.2-3 11 6.3 10.9-6.3v-3.7h-27.1v-11.9l16.2-9.4z"/><path class="st77" d="m808.9 579.7 60.3-35 60.4 34.6v70.3l-60.6 35-60.1-34.6z"/><path class="st77" d="m810.4 580.4 59 34.2 59.1-34.5-59.1-33.9-59 34.2"/><path class="st78" d="M810.4 580.4v68.8l58.8 33.9.2-68.5z"/><path class="st79" d="m869.4 614.6 59.1-34.5v68.8l-59.3 34.2z"/><path class="st71" d="m913 589.2-14 8.1-29.6-16.9-29.6 16.9v10.1H913v32.3l-43.4 25.2-43.8-25.2 14.2-8.2 29.4 17 29.5-16.8v-10h-73.1v-32.1l43.6-25.2z"/><path class="st77" d="m369.4 758.6 60.5-35.1 60.5 34.7v70.5l-60.7 35-60.3-34.6z"/><path class="st77" d="m370.9 759.3 59.2 34.3 59.2-34.7-59.2-33.9-59.2 34.3"/><path class="st78" d="M370.9 759.3v69l59 33.9.2-68.6z"/><path class="st79" d="m430.1 793.6 59.2-34.7v69l-59.4 34.3z"/><path class="st71" d="m473.8 768.1-14 8.1-29.7-16.9-29.7 16.9v10.1h73.4v32.4L430.3 844l-43.9-25.3 14.2-8.2 29.5 17.1 29.5-16.9v-10h-73.2v-32.2l43.7-25.3z"/><path class="st77" d="m1379.2 620.7 18.4-10.7 18.5 10.6v21.5l-18.5 10.7-18.4-10.6z"/><path class="st77" d="m1379.6 620.9 18.1 10.5 18.1-10.6-18.1-10.3-18.1 10.4"/><path class="st78" d="M1379.6 620.9V642l18 10.4.1-21z"/><path class="st79" d="m1397.7 631.4 18.1-10.6v21.1l-18.2 10.5z"/><path class="st71" d="m1411 623.6-4.2 2.5-9.1-5.2-9.1 5.2v3.1h22.4v9.9l-13.2 7.7-13.4-7.7 4.3-2.5 9 5.2 9-5.2v-3h-22.3v-9.8l13.3-7.8z"/><path class="st77" d="m640.9 511.8 63.2-36.6 63.2 36.2V585l-63.4 36.6-63-36.2z"/><path class="st77" d="m642.5 512.6 61.8 35.8 61.8-36.2-61.8-35.4-61.8 35.8"/><path class="st78" d="M642.5 512.6v72l61.6 35.5.2-71.7z"/><path class="st79" d="m704.3 548.4 61.8-36.2v72l-62 35.9z"/><path class="st71" d="m749.9 521.8-14.6 8.4-31-17.6-31 17.6v10.6h76.6v33.8l-45.4 26.5-45.8-26.5 14.8-8.6 30.8 17.8 30.8-17.6v-10.4h-76.4v-33.6l45.6-26.4z"/><linearGradient id="XMLID_92_" gradientUnits="userSpaceOnUse" x1="845.146" y1="16218.399" x2="848.948" y2="16218.399" gradientTransform="translate(0 -15670)"><stop offset="0" style="stop-color:#fff;stop-opacity:.6"/><stop offset="1" style="stop-color:#fff"/></linearGradient><circle id="XMLID_1_" cx="847" cy="548.4" r="1.9" style="opacity:.4;fill:url(#XMLID_92_);enable-background:new"/><path class="st77" d="m1034.6 606.2 47-27.3 47 27v54.8l-47.1 27.3-46.9-27z"/><path class="st77" d="m1035.7 606.8 46.1 26.7 46-27-46-26.4-46.1 26.7"/><path class="st78" d="M1035.7 606.8v53.6l45.9 26.4.2-53.3z"/><path class="st79" d="m1081.8 633.5 46-27v53.6l-46.2 26.7z"/><path class="st71" d="m1115.7 613.7-10.9 6.2-23-13.1-23.1 13.1v7.9h57V653l-33.8 19.6-34.1-19.6 11-6.4 23 13.2 22.9-13.1V639h-56.9v-25l34-19.7z"/><path class="st77" d="m1334.3 346.4 31.5-18.3 31.5 18v36.7l-31.6 18.3-31.4-18z"/><path class="st77" d="m1335.1 346.8 30.8 17.8 30.8-18-30.8-17.7-30.8 17.9"/><path class="st78" d="M1335.1 346.8v35.9l30.7 17.6.1-35.7z"/><path class="st79" d="m1365.9 364.6 30.8-18v35.9l-30.9 17.8z"/><path class="st71" d="m1388.6 351.3-7.2 4.2-15.5-8.7-15.5 8.7v5.3h38.2v16.9l-22.6 13.1-22.8-13.1 7.3-4.3 15.4 8.9 15.4-8.8v-5.2h-38.1v-16.8l22.7-13.1z"/></svg>