<svg version="1.1" id="Capa_1" xmlns="http://www.w3.org/2000/svg" xmlns:xlink="http://www.w3.org/1999/xlink" x="0" y="0" viewBox="-779.5 -1297.5 2083 2083" style="enable-background:new -779.5 -1297.5 2083 2083" xml:space="preserve"><style>.st0{fill:#f18d4a}.st1{fill:#d75814}.st77{fill:#ec6b1c}</style><path class="st0" d="m-603-286.2 291-168.6 290.9 166.7v99L-313-20.6l-290-166.6z"/><path class="st1" d="m-603-426.2 291-168.6 290.9 166.7v99L-313-160.6l-290-166.6z"/><linearGradient id="SVGID_1_" gradientUnits="userSpaceOnUse" x1="-27.1" y1="315.337" x2="1172.68" y2="315.337"><stop offset="0" style="stop-color:#f18d4a"/><stop offset=".996" style="stop-color:#ec6b1c"/></linearGradient><path style="fill:none;stroke:url(#SVGID_1_);stroke-width:6;stroke-miterlimit:10" d="m816.1 212.7 350.6 204-280.6 164-468.7-271.4-84.7 48L86.1 212.7l85.3-50.7-197-112.9"/><linearGradient id="XMLID_2_" gradientUnits="userSpaceOnUse" x1="178.629" y1="-162.686" x2="283.687" y2="-162.686"><stop offset="0" style="stop-color:#f18d4a"/><stop offset=".996" style="stop-color:#ec6b1c"/></linearGradient><path id="XMLID_154_" style="fill:none;stroke:url(#XMLID_2_);stroke-width:6;stroke-miterlimit:10" d="m282.2-132.4-102-60.6"/><linearGradient id="XMLID_3_" gradientUnits="userSpaceOnUse" x1="29.085" y1="-71.064" x2="275.237" y2="-71.064"><stop offset="0" style="stop-color:#f18d4a"/><stop offset=".996" style="stop-color:#ec6b1c"/></linearGradient><path id="XMLID_74_" style="fill:none;stroke:url(#XMLID_3_);stroke-width:6;stroke-miterlimit:10" d="m273.6-39.6-96-62-108 54-39-23"/><linearGradient id="XMLID_4_" gradientUnits="userSpaceOnUse" x1="-441.191" y1="261.986" x2="649.216" y2="261.986"><stop offset="0" style="stop-color:#f18d4a"/><stop offset=".996" style="stop-color:#ec6b1c"/></linearGradient><path id="XMLID_12_" style="fill:none;stroke:url(#XMLID_4_);stroke-width:6;stroke-miterlimit:10" d="M647.6 92.2 96.7 430.9l-536.4-310.3"/><path id="XMLID_121_" style="opacity:.3;fill:#1d1b30" d="m713.4-194.9 476.2 296.3-473 296.4-476.2-296.3z"/><g id="XMLID_172_"><linearGradient id="XMLID_5_" gradientUnits="userSpaceOnUse" x1="605.816" y1="-16869.394" x2="824.262" y2="-16054.143" gradientTransform="matrix(1 0 0 -1 0 -16896)"><stop offset="0" style="stop-color:#4f3e90"/><stop offset="1" style="stop-color:#171a31"/></linearGradient><path id="XMLID_182_" style="fill:url(#XMLID_5_)" d="m483.9-737.4 230.4-133.9 231.9 133.8V-131L715.8 2.9 483.9-130.9z"/><linearGradient id="XMLID_6_" gradientUnits="userSpaceOnUse" x1="681.633" y1="-16283.176" x2="748.445" y2="-16033.828" gradientTransform="matrix(1 0 0 -1 0 -16896)"><stop offset="0" style="stop-color:#4f3e90"/><stop offset="1" style="stop-color:#171a31"/></linearGradient><path id="XMLID_181_" style="fill:url(#XMLID_6_)" d="m714.3-871.3 231.9 133.8-230.4 133.8-231.9-133.7z"/><g id="XMLID_173_"><linearGradient id="XMLID_7_" gradientUnits="userSpaceOnUse" x1="697.693" y1="-16212.18" x2="732.309" y2="-16082.988" gradientTransform="matrix(1 0 0 -1 0 -16896)"><stop offset="0" style="stop-color:#4f3e90"/><stop offset="1" style="stop-color:#171a31"/></linearGradient><path id="XMLID_178_" style="fill:url(#XMLID_7_)" d="m714.6-817.8 120.1 69.4-119.3 69.3-120.2-69.3z"/><linearGradient id="XMLID_8_" gradientUnits="userSpaceOnUse" x1="696.436" y1="-16223.389" x2="724.681" y2="-16117.978" gradientTransform="matrix(1 0 0 -1 0 -16896)"><stop offset="0" style="stop-color:#463780"/><stop offset=".143" style="stop-color:#382e68"/><stop offset=".331" style="stop-color:#292550"/><stop offset=".529" style="stop-color:#1f1f3f"/><stop offset=".743" style="stop-color:#191b34"/><stop offset="1" style="stop-color:#171a31"/></linearGradient><path id="XMLID_175_" d="m711.1-681.3-115.7-67.2v11L711.1-669c2.5 1.5 5.5 1.5 8 0l115.7-67.2v-12.4l-115.7 67.2c-2.5 1.5-5.5 1.5-8 .1z" style="fill:url(#XMLID_8_)"/><linearGradient id="XMLID_9_" gradientUnits="userSpaceOnUse" x1="594.747" y1="-16181.715" x2="835.25" y2="-16181.715" gradientTransform="matrix(1 0 0 -1 0 -16896)"><stop offset="0" style="stop-color:#00ace9"/><stop offset="1" style="stop-color:#007541"/></linearGradient><path id="XMLID_174_" d="m595.2-748.4 116.3 67.1c2.4 1.4 5.4 1.4 7.8 0l115.4-67.1" style="opacity:.2;fill:none;stroke:url(#XMLID_9_);stroke-width:2;stroke-miterlimit:10"/></g></g><linearGradient id="XMLID_10_" gradientUnits="userSpaceOnUse" x1="380.136" y1="-17027.006" x2="521.424" y2="-16499.711" gradientTransform="matrix(1 0 0 -1 0 -16896)"><stop offset="0" style="stop-color:#4f3e90"/><stop offset="1" style="stop-color:#171a31"/></linearGradient><path id="XMLID_185_" style="fill:url(#XMLID_10_)" d="M220.1 16.6v-298.4L450-415.4l231.4 133.5V16.6L451.6 150.1z"/><linearGradient id="XMLID_11_" gradientUnits="userSpaceOnUse" x1="416.584" y1="-16691.992" x2="483.384" y2="-16442.693" gradientTransform="matrix(1 0 0 -1 0 -16896)"><stop offset="0" style="stop-color:#4f3e90"/><stop offset="1" style="stop-color:#171a31"/></linearGradient><path id="XMLID_382_" style="fill:url(#XMLID_11_)" d="m449.2-462.5 231.9 133.8-230.3 133.9-231.9-133.8z"/><linearGradient id="XMLID_13_" gradientUnits="userSpaceOnUse" x1="320.238" y1="-16711.363" x2="349.431" y2="-16602.414" gradientTransform="matrix(1 0 0 -1 0 -16896)"><stop offset="0" style="stop-color:#f18d4a"/><stop offset=".996" style="stop-color:#ec6b1c"/></linearGradient><path id="XMLID_381_" style="fill:url(#XMLID_13_)" d="m218.9-328.6-.2 45.1 232.1 133.8v-45.1z"/><linearGradient id="XMLID_14_" gradientUnits="userSpaceOnUse" x1="565.964" y1="-16746.357" x2="565.964" y2="-16567.42" gradientTransform="matrix(1 0 0 -1 0 -16896)"><stop offset="0" style="stop-color:#463780"/><stop offset=".143" style="stop-color:#382e68"/><stop offset=".331" style="stop-color:#292550"/><stop offset=".529" style="stop-color:#1f1f3f"/><stop offset=".743" style="stop-color:#191b34"/><stop offset="1" style="stop-color:#171a31"/></linearGradient><path id="XMLID_318_" style="fill:url(#XMLID_14_)" d="M450.8-149.6v-45.2l230.4-133.8-.2 45.2z"/><linearGradient id="XMLID_15_" gradientUnits="userSpaceOnUse" x1="416.584" y1="-16604.984" x2="483.384" y2="-16355.684" gradientTransform="matrix(1 0 0 -1 0 -16896)"><stop offset="0" style="stop-color:#4f3e90"/><stop offset="1" style="stop-color:#171a31"/></linearGradient><path id="XMLID_312_" style="fill:url(#XMLID_15_)" d="m449.2-549.5 231.9 133.8-230.3 133.8-231.9-133.7z"/><linearGradient id="XMLID_16_" gradientUnits="userSpaceOnUse" x1="320.238" y1="-16624.356" x2="349.431" y2="-16515.406" gradientTransform="matrix(1 0 0 -1 0 -16896)"><stop offset="0" style="stop-color:#f18d4a"/><stop offset=".996" style="stop-color:#ec6b1c"/></linearGradient><path id="XMLID_307_" style="fill:url(#XMLID_16_)" d="m218.9-415.6-.2 45.1 232.1 133.8v-45.1z"/><linearGradient id="XMLID_17_" gradientUnits="userSpaceOnUse" x1="565.964" y1="-16659.35" x2="565.964" y2="-16480.412" gradientTransform="matrix(1 0 0 -1 0 -16896)"><stop offset="0" style="stop-color:#463780"/><stop offset=".143" style="stop-color:#382e68"/><stop offset=".331" style="stop-color:#292550"/><stop offset=".529" style="stop-color:#1f1f3f"/><stop offset=".743" style="stop-color:#191b34"/><stop offset="1" style="stop-color:#171a31"/></linearGradient><path id="XMLID_291_" style="fill:url(#XMLID_17_)" d="M450.8-236.7v-45.1l230.4-133.8-.2 45.1z"/><linearGradient id="XMLID_18_" gradientUnits="userSpaceOnUse" x1="416.584" y1="-16517.975" x2="483.384" y2="-16268.676" gradientTransform="matrix(1 0 0 -1 0 -16896)"><stop offset="0" style="stop-color:#4f3e90"/><stop offset="1" style="stop-color:#171a31"/></linearGradient><path id="XMLID_246_" style="fill:url(#XMLID_18_)" d="m449.2-636.5 231.9 133.8-230.3 133.8-231.9-133.7z"/><linearGradient id="XMLID_19_" gradientUnits="userSpaceOnUse" x1="320.238" y1="-16537.346" x2="349.431" y2="-16428.396" gradientTransform="matrix(1 0 0 -1 0 -16896)"><stop offset="0" style="stop-color:#f18d4a"/><stop offset=".996" style="stop-color:#ec6b1c"/></linearGradient><path id="XMLID_245_" style="fill:url(#XMLID_19_)" d="m218.9-502.6-.2 45.1 232.1 133.8v-45.1z"/><linearGradient id="XMLID_20_" gradientUnits="userSpaceOnUse" x1="565.964" y1="-16572.34" x2="565.964" y2="-16393.402" gradientTransform="matrix(1 0 0 -1 0 -16896)"><stop offset="0" style="stop-color:#463780"/><stop offset=".143" style="stop-color:#382e68"/><stop offset=".331" style="stop-color:#292550"/><stop offset=".529" style="stop-color:#1f1f3f"/><stop offset=".743" style="stop-color:#191b34"/><stop offset="1" style="stop-color:#171a31"/></linearGradient><path id="XMLID_229_" style="fill:url(#XMLID_20_)" d="M450.8-323.7v-45.1l230.4-133.8-.2 45.1z"/><linearGradient id="XMLID_21_" gradientUnits="userSpaceOnUse" x1="416.584" y1="-16430.967" x2="483.384" y2="-16181.667" gradientTransform="matrix(1 0 0 -1 0 -16896)"><stop offset="0" style="stop-color:#4f3e90"/><stop offset="1" style="stop-color:#171a31"/></linearGradient><path id="XMLID_163_" style="fill:url(#XMLID_21_)" d="m449.2-723.5 231.9 133.8-230.3 133.8-231.9-133.7z"/><linearGradient id="XMLID_22_" gradientUnits="userSpaceOnUse" x1="320.238" y1="-16450.338" x2="349.431" y2="-16341.389" gradientTransform="matrix(1 0 0 -1 0 -16896)"><stop offset="0" style="stop-color:#f18d4a"/><stop offset=".996" style="stop-color:#ec6b1c"/></linearGradient><path id="XMLID_162_" style="fill:url(#XMLID_22_)" d="m218.9-589.6-.2 45.1 232.1 133.8v-45.1z"/><linearGradient id="XMLID_23_" gradientUnits="userSpaceOnUse" x1="565.964" y1="-16485.332" x2="565.964" y2="-16306.395" gradientTransform="matrix(1 0 0 -1 0 -16896)"><stop offset="0" style="stop-color:#463780"/><stop offset=".143" style="stop-color:#382e68"/><stop offset=".331" style="stop-color:#292550"/><stop offset=".529" style="stop-color:#1f1f3f"/><stop offset=".743" style="stop-color:#191b34"/><stop offset="1" style="stop-color:#171a31"/></linearGradient><path id="XMLID_161_" style="fill:url(#XMLID_23_)" d="M450.8-410.7v-45.1l230.4-133.8-.2 45.1z"/><linearGradient id="XMLID_24_" gradientUnits="userSpaceOnUse" x1="417.374" y1="-16430.449" x2="484.186" y2="-16181.103" gradientTransform="matrix(1 0 0 -1 0 -16896)"><stop offset="0" style="stop-color:#4f3e90"/><stop offset="1" style="stop-color:#171a31"/></linearGradient><path id="XMLID_212_" style="fill:url(#XMLID_24_)" d="m450-724.1 231.9 133.9-230.3 133.8-232-133.8z"/><g id="XMLID_190_"><linearGradient id="XMLID_25_" gradientUnits="userSpaceOnUse" x1="433.434" y1="-16359.454" x2="468.05" y2="-16230.263" gradientTransform="matrix(1 0 0 -1 0 -16896)"><stop offset="0" style="stop-color:#4f3e90"/><stop offset="1" style="stop-color:#171a31"/></linearGradient><path id="XMLID_210_" style="fill:url(#XMLID_25_)" d="m450.3-670.5 120.2 69.4-119.3 69.3L331-601.1z"/><linearGradient id="XMLID_26_" gradientUnits="userSpaceOnUse" x1="432.177" y1="-16370.663" x2="460.421" y2="-16265.253" gradientTransform="matrix(1 0 0 -1 0 -16896)"><stop offset="0" style="stop-color:#463780"/><stop offset=".143" style="stop-color:#382e68"/><stop offset=".331" style="stop-color:#292550"/><stop offset=".529" style="stop-color:#1f1f3f"/><stop offset=".743" style="stop-color:#191b34"/><stop offset="1" style="stop-color:#171a31"/></linearGradient><path id="XMLID_208_" d="m446.9-534.1-115.7-67.2v11l115.7 68.5c2.5 1.5 5.5 1.5 8 0L570.6-589v-12.4l-115.7 67.2c-2.5 1.6-5.6 1.6-8 .1z" style="fill:url(#XMLID_26_)"/><linearGradient id="XMLID_27_" gradientUnits="userSpaceOnUse" x1="330.488" y1="-16328.989" x2="570.991" y2="-16328.989" gradientTransform="matrix(1 0 0 -1 0 -16896)"><stop offset="0" style="stop-color:#00ace9"/><stop offset="1" style="stop-color:#007541"/></linearGradient><path id="XMLID_191_" d="M331-601.1 447.3-534c2.4 1.4 5.4 1.4 7.8 0l115.4-67.1" style="opacity:.2;fill:none;stroke:url(#XMLID_27_);stroke-width:2;stroke-miterlimit:10"/></g><linearGradient id="XMLID_28_" gradientUnits="userSpaceOnUse" x1="860.983" y1="-17018.137" x2="1079.429" y2="-16202.884" gradientTransform="matrix(1 0 0 -1 0 -16896)"><stop offset="0" style="stop-color:#4f3e90"/><stop offset="1" style="stop-color:#171a31"/></linearGradient><path id="XMLID_171_" style="fill:url(#XMLID_28_)" d="m739.1-588.7 230.3-133.9 231.9 133.8V17.8L971 151.6 739.1 17.8z"/><linearGradient id="XMLID_29_" gradientUnits="userSpaceOnUse" x1="936.8" y1="-16431.916" x2="1003.613" y2="-16182.569" gradientTransform="matrix(1 0 0 -1 0 -16896)"><stop offset="0" style="stop-color:#4f3e90"/><stop offset="1" style="stop-color:#171a31"/></linearGradient><path id="XMLID_170_" style="fill:url(#XMLID_29_)" d="m969.4-722.6 231.9 133.8L971-454.9 739.1-588.7z"/><linearGradient id="XMLID_30_" gradientUnits="userSpaceOnUse" x1="605.816" y1="-17166.877" x2="824.262" y2="-16351.626" gradientTransform="matrix(1 0 0 -1 0 -16896)"><stop offset="0" style="stop-color:#4f3e90"/><stop offset="1" style="stop-color:#171a31"/></linearGradient><path id="XMLID_52_" style="fill:url(#XMLID_30_)" d="m483.9-440 230.4-133.8L946.2-440v606.5L715.8 300.4 483.9 166.6z"/><linearGradient id="XMLID_31_" gradientUnits="userSpaceOnUse" x1="1026.519" y1="-16187.807" x2="1031.629" y2="-16187.807" gradientTransform="matrix(1 0 0 -1 0 -16896)"><stop offset="0" style="stop-color:#fff;stop-opacity:.6"/><stop offset="1" style="stop-color:#fff"/></linearGradient><circle id="XMLID_214_" cx="1029.1" cy="-708.2" r="2.6" style="opacity:.4;fill:url(#XMLID_31_)"/><linearGradient id="XMLID_32_" gradientUnits="userSpaceOnUse" x1="1006.134" y1="-16150.323" x2="1011.609" y2="-16150.323" gradientTransform="matrix(1 0 0 -1 0 -16896)"><stop offset="0" style="stop-color:#fff;stop-opacity:.6"/><stop offset="1" style="stop-color:#fff"/></linearGradient><circle id="XMLID_358_" cx="1008.9" cy="-745.7" r="2.7" style="opacity:.55;fill:url(#XMLID_32_)"/><linearGradient id="XMLID_33_" gradientUnits="userSpaceOnUse" x1="681.633" y1="-16580.658" x2="748.445" y2="-16331.31" gradientTransform="matrix(1 0 0 -1 0 -16896)"><stop offset="0" style="stop-color:#4f3e90"/><stop offset="1" style="stop-color:#171a31"/></linearGradient><path id="XMLID_92_" style="fill:url(#XMLID_33_)" d="M714.3-573.8 946.2-440 715.8-306.2 483.9-440z"/><g id="XMLID_111_"><linearGradient id="XMLID_34_" gradientUnits="userSpaceOnUse" x1="953.658" y1="-16350.429" x2="986.786" y2="-16226.794" gradientTransform="matrix(1 0 0 -1 0 -16896)"><stop offset="0" style="stop-color:#4f3e90"/><stop offset="1" style="stop-color:#171a31"/></linearGradient><path id="XMLID_115_" style="fill:url(#XMLID_34_)" d="m969.8-673.7 115 66.3L970.6-541l-115-66.4z"/><linearGradient id="XMLID_35_" gradientUnits="userSpaceOnUse" x1="905.878" y1="-16360.035" x2="920.355" y2="-16306.004" gradientTransform="matrix(1 0 0 -1 0 -16896)"><stop offset="0" style="stop-color:#7f00ff"/><stop offset="1" style="stop-color:#3f00fc"/></linearGradient><path id="XMLID_113_" style="fill:url(#XMLID_35_)" d="m855.6-607.3-.1 22.3 115.1 66.4V-541z"/><linearGradient id="XMLID_36_" gradientUnits="userSpaceOnUse" x1="1027.739" y1="-16377.39" x2="1027.739" y2="-16288.65" gradientTransform="matrix(1 0 0 -1 0 -16896)"><stop offset="0" style="stop-color:#463780"/><stop offset=".143" style="stop-color:#382e68"/><stop offset=".331" style="stop-color:#292550"/><stop offset=".529" style="stop-color:#1f1f3f"/><stop offset=".743" style="stop-color:#191b34"/><stop offset="1" style="stop-color:#171a31"/></linearGradient><path id="XMLID_112_" style="fill:url(#XMLID_36_)" d="M970.6-518.6V-541l114.3-66.3-.1 22.3z"/></g><linearGradient id="XMLID_37_" gradientUnits="userSpaceOnUse" x1="960.712" y1="-16323.843" x2="980.52" y2="-16249.919" gradientTransform="matrix(1 0 0 -1 0 -16896)"><stop offset="0" style="stop-color:#7f00ff;stop-opacity:.2"/><stop offset="1" style="stop-color:#3f00fc"/></linearGradient><path id="XMLID_110_" style="fill:url(#XMLID_37_)" d="m970.4-648.8 68.7 39.7-68.2 39.7-68.8-39.7z"/><g id="XMLID_97_"><defs><path id="XMLID_98_" d="m970.4-648.8 68.7 39.7-68.2 39.7-68.8-39.7z"/></defs><clipPath id="XMLID_38_"><use xlink:href="#XMLID_98_" style="overflow:visible"/></clipPath><linearGradient id="XMLID_39_" gradientUnits="userSpaceOnUse" x1="960.678" y1="-16262.277" x2="980.548" y2="-16336.433" gradientTransform="matrix(1 0 0 -1 0 -16896)"><stop offset="0" style="stop-color:#7f00ff;stop-opacity:.7"/><stop offset="1" style="stop-color:#3f00fc;stop-opacity:.6"/></linearGradient><path id="XMLID_109_" style="clip-path:url(#XMLID_38_);fill:url(#XMLID_39_)" d="m970.4-636.3 68.7 39.6-68.2 39.7-68.8-39.6z"/><linearGradient id="XMLID_41_" gradientUnits="userSpaceOnUse" x1="960.678" y1="-16274.518" x2="980.548" y2="-16348.672" gradientTransform="matrix(1 0 0 -1 0 -16896)"><stop offset="0" style="stop-color:#7f00ff;stop-opacity:.7"/><stop offset="1" style="stop-color:#3f00fc;stop-opacity:.6"/></linearGradient><path id="XMLID_108_" style="clip-path:url(#XMLID_38_);fill:url(#XMLID_41_)" d="m970.4-624.1 68.7 39.7-68.2 39.7-68.8-39.7z"/><linearGradient id="XMLID_42_" gradientUnits="userSpaceOnUse" x1="960.678" y1="-16286.758" x2="980.548" y2="-16360.912" gradientTransform="matrix(1 0 0 -1 0 -16896)"><stop offset="0" style="stop-color:#7f00ff;stop-opacity:.7"/><stop offset="1" style="stop-color:#3f00fc;stop-opacity:.6"/></linearGradient><path id="XMLID_107_" style="clip-path:url(#XMLID_38_);fill:url(#XMLID_42_)" d="m970.4-611.8 68.7 39.6-68.2 39.7-68.8-39.6z"/><linearGradient id="XMLID_43_" gradientUnits="userSpaceOnUse" x1="960.678" y1="-16298.998" x2="980.548" y2="-16373.152" gradientTransform="matrix(1 0 0 -1 0 -16896)"><stop offset="0" style="stop-color:#7f00ff;stop-opacity:.7"/><stop offset="1" style="stop-color:#3f00fc;stop-opacity:.6"/></linearGradient><path id="XMLID_105_" style="clip-path:url(#XMLID_38_);fill:url(#XMLID_43_)" d="m970.4-599.6 68.7 39.7-68.2 39.7-68.8-39.7z"/><linearGradient id="XMLID_44_" gradientUnits="userSpaceOnUse" x1="960.678" y1="-16311.238" x2="980.548" y2="-16385.393" gradientTransform="matrix(1 0 0 -1 0 -16896)"><stop offset="0" style="stop-color:#7f00ff;stop-opacity:.7"/><stop offset="1" style="stop-color:#3f00fc;stop-opacity:.6"/></linearGradient><path id="XMLID_104_" style="clip-path:url(#XMLID_38_);fill:url(#XMLID_44_)" d="m970.4-587.4 68.7 39.7-68.2 39.7-68.8-39.7z"/><linearGradient id="XMLID_45_" gradientUnits="userSpaceOnUse" x1="960.678" y1="-16323.478" x2="980.548" y2="-16397.633" gradientTransform="matrix(1 0 0 -1 0 -16896)"><stop offset="0" style="stop-color:#7f00ff;stop-opacity:.7"/><stop offset="1" style="stop-color:#3f00fc;stop-opacity:.6"/></linearGradient><path id="XMLID_103_" style="clip-path:url(#XMLID_38_);fill:url(#XMLID_45_)" d="m970.4-575.1 68.7 39.7-68.2 39.6-68.8-39.6z"/><linearGradient id="XMLID_46_" gradientUnits="userSpaceOnUse" x1="960.678" y1="-16335.718" x2="980.548" y2="-16409.873" gradientTransform="matrix(1 0 0 -1 0 -16896)"><stop offset="0" style="stop-color:#7f00ff;stop-opacity:.7"/><stop offset="1" style="stop-color:#3f00fc;stop-opacity:.6"/></linearGradient><path id="XMLID_101_" style="clip-path:url(#XMLID_38_);fill:url(#XMLID_46_)" d="m970.4-562.9 68.7 39.7-68.2 39.7-68.8-39.7z"/><linearGradient id="XMLID_47_" gradientUnits="userSpaceOnUse" x1="960.678" y1="-16347.958" x2="980.548" y2="-16422.113" gradientTransform="matrix(1 0 0 -1 0 -16896)"><stop offset="0" style="stop-color:#7f00ff;stop-opacity:.7"/><stop offset="1" style="stop-color:#3f00fc;stop-opacity:.6"/></linearGradient><path id="XMLID_100_" style="clip-path:url(#XMLID_38_);fill:url(#XMLID_47_)" d="m970.4-550.6 68.7 39.6-68.2 39.7-68.8-39.6z"/></g><linearGradient id="XMLID_51_" gradientUnits="userSpaceOnUse" x1="973.798" y1="-16244.184" x2="977.338" y2="-16244.184" gradientTransform="matrix(1 0 0 -1 0 -16896)"><stop offset="0" style="stop-color:#fff;stop-opacity:.6"/><stop offset="1" style="stop-color:#fff"/></linearGradient><circle id="XMLID_93_" cx="975.6" cy="-651.8" r="1.8" style="opacity:.55;fill:url(#XMLID_51_)"/><linearGradient id="XMLID_53_" gradientUnits="userSpaceOnUse" x1="599.867" y1="171.194" x2="599.867" y2="-150.524"><stop offset="0" style="stop-color:#f18d4a"/><stop offset=".996" style="stop-color:#ec6b1c"/></linearGradient><path id="XMLID_252_" style="fill:url(#XMLID_53_)" d="m512.5-348.6 174.7 100.7V209L512.5 108.3z"/><linearGradient id="XMLID_54_" gradientUnits="userSpaceOnUse" x1="664.302" y1="-16423.344" x2="946.157" y2="-16423.344" gradientTransform="matrix(1 0 0 -1 0 -16896)"><stop offset="0" style="stop-color:#463780"/><stop offset=".143" style="stop-color:#382e68"/><stop offset=".331" style="stop-color:#292550"/><stop offset=".529" style="stop-color:#1f1f3f"/><stop offset=".743" style="stop-color:#191b34"/><stop offset="1" style="stop-color:#171a31"/></linearGradient><path id="XMLID_693_" style="opacity:5.000000e-02;fill:url(#XMLID_54_)" d="m719.1-371.5 128.6-11.3 98.5-57.2-231.9-133.8-50 82.8z"/><g id="XMLID_40_"><linearGradient id="XMLID_55_" gradientUnits="userSpaceOnUse" x1="697.693" y1="-16509.662" x2="732.309" y2="-16380.472" gradientTransform="matrix(1 0 0 -1 0 -16896)"><stop offset="0" style="stop-color:#4f3e90"/><stop offset="1" style="stop-color:#171a31"/></linearGradient><path id="XMLID_50_" style="fill:url(#XMLID_55_)" d="m714.6-520.3 120.1 69.4-119.3 69.3-120.2-69.3z"/><linearGradient id="XMLID_56_" gradientUnits="userSpaceOnUse" x1="696.436" y1="-16520.871" x2="724.681" y2="-16415.461" gradientTransform="matrix(1 0 0 -1 0 -16896)"><stop offset="0" style="stop-color:#463780"/><stop offset=".143" style="stop-color:#382e68"/><stop offset=".331" style="stop-color:#292550"/><stop offset=".529" style="stop-color:#1f1f3f"/><stop offset=".743" style="stop-color:#191b34"/><stop offset="1" style="stop-color:#171a31"/></linearGradient><path id="XMLID_49_" d="M711.1-383.8 595.4-451v11l115.7 68.5c2.5 1.5 5.5 1.5 8 0l115.7-67.2V-451l-115.7 67.2c-2.5 1.4-5.5 1.4-8 0z" style="fill:url(#XMLID_56_)"/><linearGradient id="XMLID_57_" gradientUnits="userSpaceOnUse" x1="594.747" y1="-16479.197" x2="835.25" y2="-16479.197" gradientTransform="matrix(1 0 0 -1 0 -16896)"><stop offset="0" style="stop-color:#00ace9"/><stop offset="1" style="stop-color:#007541"/></linearGradient><path id="XMLID_48_" d="m595.2-450.9 116.3 67.1c2.4 1.4 5.4 1.4 7.8 0l115.4-67.1" style="opacity:.2;fill:none;stroke:url(#XMLID_57_);stroke-width:2;stroke-miterlimit:10"/></g><linearGradient id="SVGID_2_" gradientUnits="userSpaceOnUse" x1="764.695" y1="-16600.844" x2="904.799" y2="-16600.844" gradientTransform="matrix(1 0 0 -1 0 -16896)"><stop offset="0" style="stop-color:#4f3e90"/><stop offset="1" style="stop-color:#171a31"/></linearGradient><path style="fill:url(#SVGID_2_)" d="M764.7-258.1v6.8l140.1-80.8v-6.9z"/><linearGradient id="SVGID_3_" gradientUnits="userSpaceOnUse" x1="764.695" y1="-16615.104" x2="904.799" y2="-16615.104" gradientTransform="matrix(1 0 0 -1 0 -16896)"><stop offset="0" style="stop-color:#4f3e90"/><stop offset="1" style="stop-color:#171a31"/></linearGradient><path style="fill:url(#SVGID_3_)" d="M764.7-243.8v6.7l140.1-80.7v-6.9z"/><linearGradient id="SVGID_4_" gradientUnits="userSpaceOnUse" x1="764.695" y1="-16629.363" x2="904.799" y2="-16629.363" gradientTransform="matrix(1 0 0 -1 0 -16896)"><stop offset="0" style="stop-color:#4f3e90"/><stop offset="1" style="stop-color:#171a31"/></linearGradient><path style="fill:url(#SVGID_4_)" d="M764.7-229.6v6.8l140.1-80.8v-6.9z"/><linearGradient id="SVGID_5_" gradientUnits="userSpaceOnUse" x1="764.695" y1="-16643.623" x2="904.799" y2="-16643.623" gradientTransform="matrix(1 0 0 -1 0 -16896)"><stop offset="0" style="stop-color:#4f3e90"/><stop offset="1" style="stop-color:#171a31"/></linearGradient><path style="fill:url(#SVGID_5_)" d="M764.7-215.3v6.7l140.1-80.7v-6.9z"/><linearGradient id="SVGID_6_" gradientUnits="userSpaceOnUse" x1="764.695" y1="-16657.883" x2="904.799" y2="-16657.883" gradientTransform="matrix(1 0 0 -1 0 -16896)"><stop offset="0" style="stop-color:#4f3e90"/><stop offset="1" style="stop-color:#171a31"/></linearGradient><path style="fill:url(#SVGID_6_)" d="M764.7-201v6.7l140.1-80.8v-6.8z"/><linearGradient id="SVGID_7_" gradientUnits="userSpaceOnUse" x1="764.695" y1="-16672.143" x2="904.799" y2="-16672.143" gradientTransform="matrix(1 0 0 -1 0 -16896)"><stop offset="0" style="stop-color:#4f3e90"/><stop offset="1" style="stop-color:#171a31"/></linearGradient><path style="fill:url(#SVGID_7_)" d="M764.7-186.8v6.8l140.1-80.8v-6.9z"/><linearGradient id="SVGID_8_" gradientUnits="userSpaceOnUse" x1="764.695" y1="-16686.404" x2="904.799" y2="-16686.404" gradientTransform="matrix(1 0 0 -1 0 -16896)"><stop offset="0" style="stop-color:#4f3e90"/><stop offset="1" style="stop-color:#171a31"/></linearGradient><path style="fill:url(#SVGID_8_)" d="M764.7-172.5v6.7l140.1-80.7v-6.9z"/><linearGradient id="SVGID_9_" gradientUnits="userSpaceOnUse" x1="764.695" y1="-16700.664" x2="904.799" y2="-16700.664" gradientTransform="matrix(1 0 0 -1 0 -16896)"><stop offset="0" style="stop-color:#4f3e90"/><stop offset="1" style="stop-color:#171a31"/></linearGradient><path style="fill:url(#SVGID_9_)" d="M764.7-158.3v6.8l140.1-80.8v-6.9z"/><linearGradient id="SVGID_10_" gradientUnits="userSpaceOnUse" x1="764.695" y1="-16947.508" x2="904.799" y2="-16947.508" gradientTransform="matrix(1 0 0 -1 0 -16896)"><stop offset="0" style="stop-color:#4f3e90"/><stop offset="1" style="stop-color:#171a31"/></linearGradient><path style="fill:url(#SVGID_10_)" d="M764.7 88.6v6.7l140.1-80.7V7.7z"/><linearGradient id="SVGID_11_" gradientUnits="userSpaceOnUse" x1="764.695" y1="-16961.768" x2="904.799" y2="-16961.768" gradientTransform="matrix(1 0 0 -1 0 -16896)"><stop offset="0" style="stop-color:#4f3e90"/><stop offset="1" style="stop-color:#171a31"/></linearGradient><path style="fill:url(#SVGID_11_)" d="M764.7 102.8v6.8l140.1-80.8v-6.9z"/><linearGradient id="SVGID_12_" gradientUnits="userSpaceOnUse" x1="764.695" y1="-16976.027" x2="904.799" y2="-16976.027" gradientTransform="matrix(1 0 0 -1 0 -16896)"><stop offset="0" style="stop-color:#4f3e90"/><stop offset="1" style="stop-color:#171a31"/></linearGradient><path style="fill:url(#SVGID_12_)" d="M764.7 117.1v6.8l140.1-80.8v-6.9z"/><linearGradient id="SVGID_13_" gradientUnits="userSpaceOnUse" x1="764.695" y1="-16990.287" x2="904.799" y2="-16990.287" gradientTransform="matrix(1 0 0 -1 0 -16896)"><stop offset="0" style="stop-color:#4f3e90"/><stop offset="1" style="stop-color:#171a31"/></linearGradient><path style="fill:url(#SVGID_13_)" d="M764.7 131.4v6.7l140.1-80.8v-6.8z"/><linearGradient id="SVGID_14_" gradientUnits="userSpaceOnUse" x1="764.695" y1="-17004.547" x2="904.799" y2="-17004.547" gradientTransform="matrix(1 0 0 -1 0 -16896)"><stop offset="0" style="stop-color:#4f3e90"/><stop offset="1" style="stop-color:#171a31"/></linearGradient><path style="fill:url(#SVGID_14_)" d="M764.7 145.6v6.8l140.1-80.8v-6.9z"/><linearGradient id="SVGID_15_" gradientUnits="userSpaceOnUse" x1="764.695" y1="-17018.807" x2="904.799" y2="-17018.807" gradientTransform="matrix(1 0 0 -1 0 -16896)"><stop offset="0" style="stop-color:#4f3e90"/><stop offset="1" style="stop-color:#171a31"/></linearGradient><path style="fill:url(#SVGID_15_)" d="M764.7 159.9v6.7l140.1-80.7V79z"/><linearGradient id="SVGID_16_" gradientUnits="userSpaceOnUse" x1="764.695" y1="-17033.066" x2="904.799" y2="-17033.066" gradientTransform="matrix(1 0 0 -1 0 -16896)"><stop offset="0" style="stop-color:#4f3e90"/><stop offset="1" style="stop-color:#171a31"/></linearGradient><path style="fill:url(#SVGID_16_)" d="M764.7 174.1v6.8l140.1-80.8v-6.9z"/><linearGradient id="SVGID_17_" gradientUnits="userSpaceOnUse" x1="764.695" y1="-17047.326" x2="904.799" y2="-17047.326" gradientTransform="matrix(1 0 0 -1 0 -16896)"><stop offset="0" style="stop-color:#4f3e90"/><stop offset="1" style="stop-color:#171a31"/></linearGradient><path style="fill:url(#SVGID_17_)" d="M764.7 188.4v6.7l140.1-80.7v-6.9z"/><linearGradient id="SVGID_18_" gradientUnits="userSpaceOnUse" x1="-473.145" y1="-17009.152" x2="-449.55" y2="-17009.152" gradientTransform="matrix(1 0 0 -1 0 -16896)"><stop offset="0" style="stop-color:#7f00ff"/><stop offset="1" style="stop-color:#3f00fc"/></linearGradient><path d="M-469.5 108.5s4-3.7 13.1-1.5 6.6 8.1 6.6 8.1-2.5 5.6-13.8 4.9c0 0-16.7-3.2-5.9-11.5z" style="fill:url(#SVGID_18_)"/><linearGradient id="SVGID_19_" gradientUnits="userSpaceOnUse" x1="-486.409" y1="-17009.459" x2="-435.018" y2="-17009.459" gradientTransform="matrix(1 0 0 -1 0 -16896)"><stop offset="0" style="stop-color:#7f00ff"/><stop offset="1" style="stop-color:#3f00fc"/></linearGradient><path d="M-465.9 99.8s22.8-2.6 28.6 11.9-24.1 15.6-24.1 15.6-23.8-1.2-23.6-15c.1 0 .3-10 19.1-12.5z" style="fill:none;stroke:url(#SVGID_19_);stroke-width:3;stroke-miterlimit:10"/><linearGradient id="SVGID_20_" gradientUnits="userSpaceOnUse" x1="-58.757" y1="-16936.18" x2="-35.162" y2="-16936.18" gradientTransform="matrix(1 0 0 -1 0 -16896)"><stop offset="0" style="stop-color:#7f00ff"/><stop offset="1" style="stop-color:#3f00fc"/></linearGradient><path d="M-55.1 35.5s4-3.7 13.1-1.5 6.6 8.1 6.6 8.1-2.6 5.6-13.8 4.9c0 0-16.7-3.2-5.9-11.5z" style="fill:url(#SVGID_20_)"/><linearGradient id="SVGID_21_" gradientUnits="userSpaceOnUse" x1="-72.021" y1="-16936.486" x2="-20.63" y2="-16936.486" gradientTransform="matrix(1 0 0 -1 0 -16896)"><stop offset="0" style="stop-color:#7f00ff"/><stop offset="1" style="stop-color:#3f00fc"/></linearGradient><path d="M-51.5 26.8s22.8-2.6 28.6 11.9S-47 54.3-47 54.3s-23.8-1.2-23.6-15c.1 0 .3-10 19.1-12.5z" style="fill:none;stroke:url(#SVGID_21_);stroke-width:3;stroke-miterlimit:10"/><linearGradient id="SVGID_22_" gradientUnits="userSpaceOnUse" x1=".629" y1="-16815.342" x2="24.223" y2="-16815.342" gradientTransform="matrix(1 0 0 -1 0 -16896)"><stop offset="0" style="stop-color:#7f00ff"/><stop offset="1" style="stop-color:#3f00fc"/></linearGradient><path d="M4.2-85.3s4-3.7 13.1-1.5 6.6 8.1 6.6 8.1-2.5 5.6-13.8 4.9c.1 0-16.6-3.2-5.9-11.5z" style="fill:url(#SVGID_22_)"/><linearGradient id="SVGID_23_" gradientUnits="userSpaceOnUse" x1="-12.635" y1="-16815.648" x2="38.755" y2="-16815.648" gradientTransform="matrix(1 0 0 -1 0 -16896)"><stop offset="0" style="stop-color:#7f00ff"/><stop offset="1" style="stop-color:#3f00fc"/></linearGradient><path d="M7.9-94s22.8-2.6 28.6 11.9-24.1 15.6-24.1 15.6-23.8-1.2-23.6-15c.1 0 .3-10 19.1-12.5z" style="fill:none;stroke:url(#SVGID_23_);stroke-width:3;stroke-miterlimit:10"/><linearGradient id="SVGID_24_" gradientUnits="userSpaceOnUse" x1="148.742" y1="-16694.037" x2="172.336" y2="-16694.037" gradientTransform="matrix(1 0 0 -1 0 -16896)"><stop offset="0" style="stop-color:#7f00ff"/><stop offset="1" style="stop-color:#3f00fc"/></linearGradient><path d="M152.4-206.6s4-3.7 13.1-1.5 6.6 8.1 6.6 8.1-2.5 5.6-13.8 4.9c0 0-16.7-3.2-5.9-11.5z" style="fill:url(#SVGID_24_)"/><linearGradient id="SVGID_25_" gradientUnits="userSpaceOnUse" x1="135.477" y1="-16694.344" x2="186.868" y2="-16694.344" gradientTransform="matrix(1 0 0 -1 0 -16896)"><stop offset="0" style="stop-color:#7f00ff"/><stop offset="1" style="stop-color:#3f00fc"/></linearGradient><path d="M156-215.3s22.8-2.6 28.6 11.9-24.1 15.6-24.1 15.6-23.8-1.2-23.6-15c.1 0 .3-10 19.1-12.5z" style="fill:none;stroke:url(#SVGID_25_);stroke-width:3;stroke-miterlimit:10"/><path class="st77" d="m-603-949.5 291-168.6 290.9 166.6v339L-313-443.9l-290-166.7z"/><path style="opacity:.9;fill:#9b2f00" d="m-603-556.2 291-168.6 290.9 166.7v99L-313-290.6l-290-166.6z"/><path class="st77" d="m-595.8-945.8 284.7 164.9 284.6-166.7-284.6-163.1-284.7 164.9"/><path class="st0" d="M-595.8-945.8v331.6L-312-451.1l.9-329.8z"/><path class="st1" d="m-311.1-780.9 284.6-166.7V-616L-312-451.1z"/><path style="fill:#fff" d="m-101.1-903.4-67.2 38.7-142.8-81.1-142.8 81.1v48.8h352.8v155.7l-209.1 121.6-210.9-121.6 68.1-39.7 141.9 82 141.8-81v-47.9h-351.8v-154.8l210-121.6z"/></svg>