<svg xmlns="http://www.w3.org/2000/svg" viewBox="0 0 798 454" style="enable-background:new 0 0 798 454" xml:space="preserve"><style>.st3{fill:#fff}.st4{opacity:.3}</style><g id="coinpaprika"><g id="Shape_6_copy_12" class="st4"><path class="st3" d="M152.1 204c-.9-2.9-2.4-5.5-4.5-7.6-.9-1-1.9-2-2.8-2.9-8.4-8.2-16.6-10.8-29.5-4.8h-.7c-5.4.2-10.1 4-11.4 9.3-5.3 15-10.9 30-16.4 45-.8 1.1-1.6 2.2-2.5 3.3-10.1 7.4-19.9 14.3-34 8.5-5.1-2.1-13.5-1.4-9.1 9 .2 1.4 1 2.7 2.1 3.5 1.3 1.4 2.9 2.6 4.6 3.5 19.7 12.7 41.2 15.5 61.9 5.5 23.6-11.3 40.7-29.2 42.5-57.4.9-4.9.8-10-.2-14.9z" id="Shape_6_copy_12-2"/></g><g id="Shape_7_copy_12" class="st4"><path class="st3" d="M143.7 189.2c.1-3.9.5-7.8 1.3-11.7 1.2-10.1-4.2-14.5-8.5-14.7-4.1-.2-8.1 1.3-11 4.2-1.6 1.4-1.8 3.7-.6 5.3 2 2.1 3.7 2 4.9-2.3 1.9-7 10.1 0 9.8 3.6-.4 7.1-5.6 9.8-10.1 12.7-5.1 2.7-10.5 4.7-16.1 6.1-1.2.5-1.7 1.9-1.2 3.1.2.4.5.8.9 1.1 1.9.3 3.8.3 5.6 0 6-1 7.8.8 9.7 6.7 3.6-1.8 7.7-2.3 11.6-1.6 3.9 1.4 4 3.9 5.3 5.6.9.3 1.8-.2 2.2-1.1v-.6c-2.7-5-4.1-10.7-3.8-16.4z" id="Shape_7_copy_12-2"/></g><g id="coinpaprika_copy_7" class="st4"><path class="st3" d="M218.8 249.9c-1.1.3-2.2.5-3.4.6h-3.2c-2 0-3.9-.3-5.7-1-1.6-.7-3-1.7-4.2-3-1.2-1.4-2.2-3-2.8-4.7-1.3-4-1.3-8.4 0-12.4.5-1.8 1.4-3.4 2.7-4.8 1.2-1.3 2.6-2.4 4.2-3.1 1.8-.8 3.8-1.2 5.9-1.1 2.2 0 4.4.3 6.6.8 2.2.5 4.4 1.3 6.4 2.3v-11.1c-1.9-.6-3.8-1-5.8-1.3-2.6-.4-5.3-.6-7.9-.5-3.6-.1-7.2.5-10.5 1.8-6.1 2.3-11 7.1-13.2 13.2-1.3 3.4-1.9 7-1.9 10.6-.1 3.6.5 7.2 1.7 10.7 2.1 5.9 6.8 10.5 12.7 12.4 3.3 1.1 6.8 1.6 10.4 1.6 2.6 0 5.2-.2 7.8-.6 2.4-.4 4.8-1.1 7.1-2v-10.5c-1 .4-2 .8-3.1 1.1s-2.7.7-3.8 1zm58.7-33.2c-2-2.1-4.5-3.8-7.2-4.8-3-1.1-6.3-1.7-9.5-1.6-3.4-.1-6.9.6-10.1 1.9-2.9 1.1-5.4 2.9-7.5 5.2-2.1 2.3-3.8 5.1-4.8 8.1-1.1 3.4-1.7 6.9-1.7 10.5-.1 3.7.5 7.4 1.6 11 .9 2.9 2.5 5.6 4.6 7.9 2 2.1 4.5 3.8 7.2 4.8 3.1 1.1 6.4 1.6 9.7 1.6 3.5 0 6.9-.6 10.1-1.9 2.9-1.2 5.4-3 7.5-5.3 2-2.4 3.6-5.2 4.5-8.2 1.1-3.4 1.7-6.9 1.7-10.5 0-3.7-.6-7.3-1.7-10.8-.8-2.9-2.4-5.6-4.4-7.9zm-6.8 25.1c-.4 1.7-1.1 3.4-2 4.9-.9 1.4-2.1 2.5-3.5 3.3-1.6.8-3.3 1.2-5.1 1.2-3.3.2-6.5-1.3-8.5-3.9-2.3-3.4-3.4-7.4-3.1-11.5 0-2 .2-4 .6-5.9.3-1.7 1-3.4 2-4.8.9-1.4 2.1-2.5 3.5-3.3 1.6-.8 3.4-1.2 5.2-1.2 3.3-.2 6.5 1.2 8.5 3.8 2.1 3.4 3.1 7.4 2.8 11.4.3 1.9.1 4-.4 6zm50.6-30.4h-25.5v9.1h13.8V251h-15.7v9.1h41.4V251h-14.1l.1-39.6zm-12.1-7.9c.7.7 1.5 1.3 2.5 1.7 2 .7 4.1.7 6.1 0 .9-.4 1.7-1 2.4-1.7.7-.8 1.2-1.6 1.5-2.6.8-1.9.8-4 0-5.9-.4-.9-.9-1.6-1.5-2.3-.7-.7-1.5-1.3-2.4-1.7-1.9-.8-4.1-.8-6.1 0-.9.4-1.7.9-2.4 1.7-.7.7-1.3 1.5-1.6 2.5-.8 1.8-.9 3.9-.2 5.7.3 1 .9 1.9 1.7 2.6zm75.3 11.5c-1.2-1.5-2.8-2.7-4.6-3.4-2.1-.9-4.3-1.3-6.5-1.2-1.6 0-3.3.2-4.8.6-1.4.3-2.8.9-4 1.7-1.3.7-2.5 1.6-3.5 2.6-1.1 1.1-2.1 2.2-3.1 3.4l-.3-7.2h-10.1v48.6h11.7v-30.8c1.7-2.4 3.6-4.6 5.7-6.5 1.5-1.5 3.6-2.3 5.7-2.4 3.9 0 5.9 2.7 5.9 8v31.7h11.5v-32.6c0-2.4-.3-4.8-.9-7-.6-2-1.5-3.9-2.7-5.5zm56.1 2c-1.5-2.1-3.5-3.7-5.8-4.9-2.4-1.2-5-1.8-7.7-1.7-1.6 0-3.3.2-4.8.6-1.4.4-2.8.9-4 1.7-1.3.7-2.4 1.6-3.4 2.6-1.1 1-2.2 2.2-3.1 3.4l-.3-7.2h-9.9v67.6h11.7v-19c1.1.3 2.2.5 3.3.6 1.2.2 2.4.3 3.7.3 3.4 0 6.8-.5 10-1.6 2.9-1 5.7-2.6 7.9-4.8 2.3-2.3 4.1-5.1 5.2-8.2 1.3-3.7 2-7.6 2-11.6.1-3.4-.3-6.9-1.2-10.2-.8-2.7-2-5.3-3.6-7.6zm-8.5 25.2c-.5 1.8-1.3 3.6-2.5 5.1-1 1.3-2.4 2.4-3.9 3.2-1.6.8-3.3 1.2-5.1 1.2-1.4 0-2.8-.1-4.2-.3-1.2-.2-2.3-.5-3.4-.9v-21.2c1.7-2.4 3.6-4.6 5.7-6.5 1.5-1.5 3.6-2.3 5.7-2.4 2.6-.1 5 1.2 6.2 3.5.8 1.5 1.4 3 1.7 4.7.4 2.3.6 4.5.6 6.8s-.2 4.6-.8 6.8zm58.9-27.7c-1.9-1.5-4.1-2.5-6.4-3.1-3-.8-6.2-1.1-9.3-1-3.2 0-6.4.3-9.5.9-2.8.5-5.5 1.3-8.1 2.3v9.3c2.6-1.2 5.3-2.1 8.2-2.8 2.8-.7 5.6-1 8.5-1 1.5 0 3.1.1 4.6.6 1.1.3 2.2.9 3.1 1.7.8.7 1.4 1.6 1.7 2.5.3 1.1.5 2.2.5 3.4v2.9h-6.4c-3.5-.1-7.1.3-10.5 1.2-2.7.7-5.2 1.8-7.4 3.4-1.8 1.3-3.3 3-4.2 5.1-1 2-1.5 4.2-1.5 6.4 0 2.1.3 4.1 1 6.1.6 1.8 1.6 3.4 2.9 4.8 1.4 1.3 3 2.4 4.7 3.1 2.1.8 4.3 1.1 6.6 1.1 1.7 0 3.5-.2 5.2-.6 1.5-.4 2.9-.9 4.2-1.6 1.3-.7 2.5-1.5 3.7-2.4 1.1-.9 2.2-1.9 3.2-3l.3 6.4h10v-33.4c.1-2.5-.3-4.9-1.2-7.2-1-2-2.2-3.7-3.9-5.1zm-6.8 30.6c-1.8 1.9-3.7 3.6-5.8 5.1-1.5 1.1-3.3 1.7-5.1 1.8-1.9.1-3.7-.5-5.2-1.6-1.3-1.1-2-2.8-1.9-4.5 0-1 .2-1.9.6-2.8.4-.9 1.1-1.7 1.9-2.3 1-.8 2.1-1.3 3.4-1.6 1.6-.4 3.3-.6 5-.6h7.1v6.5zm64.1-28.1c-1.5-2.1-3.4-3.7-5.6-4.9-2.4-1.2-5-1.8-7.6-1.7-1.6 0-3.3.2-4.8.6-1.5.3-2.9.9-4.2 1.7-1.3.7-2.4 1.6-3.5 2.6-1.1 1.1-2.1 2.2-3.1 3.4l-.3-7.2H509v67.6h11.7v-19c1.1.3 2.2.5 3.3.6 1.2.2 2.4.3 3.7.3 3.4 0 6.8-.5 10-1.6 3-1 5.7-2.6 8-4.8 2.3-2.3 4.1-5.1 5.3-8.2 1.4-3.7 2-7.6 1.9-11.6 0-3.4-.4-6.9-1.2-10.2-.7-2.7-1.8-5.3-3.4-7.6zm-8.4 25.2c-.5 1.8-1.4 3.6-2.5 5.1-1.1 1.3-2.4 2.4-3.9 3.2-1.6.8-3.3 1.2-5.1 1.2-1.4 0-2.8-.1-4.2-.3-1.2-.2-2.3-.5-3.4-.9v-21.2c1.7-2.4 3.6-4.6 5.7-6.5 1.5-1.5 3.6-2.3 5.7-2.4 2.6-.1 5 1.2 6.2 3.5.8 1.5 1.3 3 1.6 4.7.4 2.3.6 4.5.6 6.8.1 2.3-.2 4.6-.7 6.8zm62.6-26.8c-1.2-1.7-2.9-3-4.8-3.8-2.1-.9-4.3-1.3-6.5-1.3-1.7 0-3.3.2-5 .6-1.5.3-2.9.9-4.2 1.7-1.2.7-2.4 1.5-3.4 2.5s-2 2.1-2.7 3.4l-.4-7.1h-10.6V260h12v-30.8c1.8-2.7 4-5.1 6.5-7.2 1.5-1.3 3.3-2 5.3-2.1.9 0 1.8.2 2.6.6.8.4 1.5 1 2 1.8.6 1 1 2 1.1 3.1.3 1.5.3 3.1.3 4.6h11.8c.1-2.9-.2-5.7-.8-8.5-.5-2.3-1.5-4.4-2.9-6.3h-.3zm42.2-4H619v9.1h13.7V251h-15.4v9.1h41.4V251h-14.1l.1-39.6zm-12.1-7.9c.7.7 1.5 1.3 2.4 1.7 2 .7 4.1.7 6.1 0 .9-.4 1.7-1 2.4-1.7s1.2-1.5 1.6-2.4c.8-1.9.8-4 0-5.9-.4-.9-.9-1.8-1.6-2.5-.7-.7-1.5-1.3-2.4-1.7-1.9-.8-4.1-.8-6.1 0-.9.4-1.7.9-2.4 1.7-.7.7-1.3 1.5-1.6 2.5-.8 1.9-.8 4 0 5.9.3.9.9 1.7 1.6 2.4zm82.1 7.9h-14.6l-17 20.6v-39.6h-11.7v67.7h11.7v-24.3l18 24.3h15.3l-21.2-26.5 19.5-22.2zm49.4 8.2c-.8-2-2-3.8-3.7-5.1-1.9-1.5-4.1-2.5-6.4-3.1-3-.8-6.2-1.1-9.3-1-3.2-.1-6.4.3-9.5.9-2.8.5-5.5 1.2-8.1 2.3v9.3c2.6-1.2 5.3-2.1 8.1-2.8 2.8-.7 5.6-1 8.5-1 1.5 0 3.1.1 4.6.6 1.1.3 2.2.9 3.1 1.7.8.7 1.4 1.6 1.7 2.5.3 1.1.5 2.2.5 3.4v2.9h-6.4c-3.5-.1-7.1.3-10.5 1.2-2.7.6-5.2 1.7-7.5 3.3-1.8 1.3-3.3 3-4.2 5.1-1 2-1.5 4.2-1.5 6.4 0 2.1.3 4.2 1 6.1.6 1.8 1.6 3.4 2.9 4.8 1.4 1.3 3 2.4 4.7 3.1 2.1.8 4.3 1.1 6.6 1.1 1.7 0 3.5-.2 5.2-.6 1.5-.4 2.9-.9 4.2-1.6 1.3-.7 2.5-1.5 3.7-2.4 1.1-.9 2.2-1.9 3.2-3l.3 6.4h10v-33.2c.2-2.5-.2-5-1.2-7.3zm-10.5 25.5c-1.7 1.9-3.7 3.6-5.8 5.1-1.5 1.1-3.3 1.7-5.1 1.8-1.9.1-3.7-.5-5.2-1.6-1.3-1.1-2-2.8-1.9-4.5 0-1 .2-1.9.6-2.8.4-.9 1.1-1.7 1.9-2.3 1-.8 2.1-1.3 3.4-1.6 1.6-.4 3.3-.6 5-.6h7.1v6.5z" id="coinpaprika_copy_7-2"/></g></g></svg>