<svg xmlns="http://www.w3.org/2000/svg" viewBox="0 0 798 454" style="enable-background:new 0 0 798 454" xml:space="preserve"><style>.st0{display:none}.st4{display:inline;opacity:.3}</style><g style="opacity:.3" id="miningpoolstats"><path d="M39.4 259.7v-71.1h14.2l16.8 50.3c1.6 4.7 2.7 8.2 3.4 10.5.8-2.6 2.1-6.4 3.8-11.4l17-49.5h12.7v71.1h-9.1v-59.5l-20.7 59.5H69l-20.6-60.5v60.5h-9zm81.9-61v-10h8.7v10h-8.7zm0 61v-51.5h8.7v51.5h-8.7zm22 0v-51.5h7.9v7.3c3.8-5.7 9.2-8.5 16.4-8.5 3.1 0 6 .6 8.6 1.7 2.6 1.1 4.5 2.6 5.8 4.4s2.2 4 2.7 6.4c.3 1.6.5 4.4.5 8.5v31.7h-8.7v-31.3c0-3.6-.3-6.2-1-8-.7-1.8-1.9-3.2-3.6-4.2-1.7-1.1-3.8-1.6-6.1-1.6-3.7 0-6.9 1.2-9.6 3.5s-4 6.8-4 13.4v28.1h-8.9zm55.3-61v-10h8.7v10h-8.7zm0 61v-51.5h8.7v51.5h-8.7zm22 0v-51.5h7.9v7.3c3.8-5.7 9.2-8.5 16.4-8.5 3.1 0 6 .6 8.6 1.7 2.6 1.1 4.5 2.6 5.8 4.4s2.2 4 2.7 6.4c.3 1.6.5 4.4.5 8.5v31.7h-8.7v-31.3c0-3.6-.3-6.2-1-8-.7-1.8-1.9-3.2-3.6-4.2-1.7-1.1-3.8-1.6-6.1-1.6-3.7 0-6.9 1.2-9.6 3.5s-4 6.8-4 13.4v28.1h-8.9zm53.7 4.3 8.5 1.3c.4 2.6 1.3 4.5 3 5.7 2.2 1.6 5.1 2.4 8.9 2.4 4 0 7.2-.8 9.4-2.4 2.2-1.6 3.7-3.9 4.5-6.8.5-1.8.7-5.5.6-11.2-3.8 4.5-8.6 6.7-14.3 6.7-7.1 0-12.6-2.6-16.4-7.7-3.9-5.1-5.8-11.2-5.8-18.4 0-4.9.9-9.4 2.7-13.6 1.8-4.2 4.4-7.4 7.7-9.6 3.4-2.3 7.3-3.4 11.9-3.4 6.1 0 11.1 2.5 15 7.4v-6.2h8v44.5c0 8-.8 13.7-2.4 17-1.6 3.3-4.2 6-7.8 7.9-3.5 1.9-7.9 2.9-13.1 2.9-6.1 0-11.1-1.4-14.9-4.1-3.8-2.7-5.7-6.9-5.5-12.4zm7.2-31c0 6.8 1.3 11.7 4 14.8 2.7 3.1 6 4.7 10.1 4.7 4 0 7.4-1.5 10.1-4.6 2.7-3.1 4.1-7.9 4.1-14.5 0-6.3-1.4-11.1-4.2-14.3-2.8-3.2-6.2-4.8-10.1-4.8-3.9 0-7.2 1.6-9.9 4.7-2.8 3.1-4.1 7.8-4.1 14zm50.3 26.7v-71.1h23c8.7 0 14.4.4 17.1 1.1 4.1 1.1 7.5 3.4 10.2 7 2.7 3.6 4.1 8.2 4.1 13.8 0 4.4-.8 8-2.4 11-1.6 3-3.6 5.3-6 7-2.4 1.7-4.9 2.8-7.4 3.4-3.4.7-8.4 1-14.9 1h-9.4v26.8h-14.3zm14.3-59.1v20.2h7.9c5.7 0 9.4-.4 11.3-1.1 1.9-.7 3.4-1.9 4.5-3.5s1.6-3.4 1.6-5.5c0-2.6-.8-4.7-2.3-6.4-1.5-1.7-3.4-2.7-5.8-3.2-1.7-.3-5.2-.5-10.3-.5h-6.9zm48.7 32.6c0-4.5 1.1-8.9 3.3-13.1 2.2-4.2 5.4-7.5 9.5-9.7s8.7-3.3 13.7-3.3c7.8 0 14.2 2.5 19.2 7.6s7.5 11.5 7.5 19.2c0 7.8-2.5 14.2-7.5 19.4-5 5.1-11.4 7.7-19 7.7-4.7 0-9.2-1.1-13.5-3.2-4.3-2.1-7.5-5.3-9.8-9.4-2.3-4.2-3.4-9.3-3.4-15.2zm13.9.8c0 5.1 1.2 9 3.6 11.7 2.4 2.7 5.4 4.1 9 4.1 3.6 0 6.5-1.4 8.9-4.1 2.4-2.7 3.6-6.7 3.6-11.8 0-5-1.2-8.9-3.6-11.6-2.4-2.7-5.4-4.1-8.9-4.1-3.6 0-6.5 1.4-9 4.1-2.4 2.6-3.6 6.5-3.6 11.7zm46.7-.8c0-4.5 1.1-8.9 3.3-13.1 2.2-4.2 5.4-7.5 9.5-9.7 4.1-2.2 8.7-3.3 13.7-3.3 7.8 0 14.2 2.5 19.2 7.6s7.5 11.5 7.5 19.2c0 7.8-2.5 14.2-7.5 19.4s-11.4 7.7-19 7.7c-4.7 0-9.2-1.1-13.5-3.2-4.3-2.1-7.5-5.3-9.8-9.4-2.3-4.2-3.4-9.3-3.4-15.2zm14 .8c0 5.1 1.2 9 3.6 11.7 2.4 2.7 5.4 4.1 9 4.1 3.6 0 6.5-1.4 8.9-4.1 2.4-2.7 3.6-6.7 3.6-11.8 0-5-1.2-8.9-3.6-11.6-2.4-2.7-5.4-4.1-8.9-4.1-3.6 0-6.5 1.4-9 4.1-2.4 2.6-3.6 6.5-3.6 11.7zm49.8 25.7v-71.1h13.6v71.1h-13.6zm25-22.8 8.9-.8c.4 3.6 1.4 6.5 2.9 8.8 1.5 2.3 3.9 4.1 7.2 5.5 3.2 1.4 6.9 2.1 10.9 2.1 3.6 0 6.8-.5 9.5-1.6s4.8-2.5 6.1-4.4c1.3-1.9 2-3.9 2-6.1 0-2.2-.6-4.2-1.9-5.8s-3.4-3.1-6.4-4.2c-1.9-.7-6.1-1.9-12.7-3.5-6.5-1.6-11.1-3-13.7-4.4-3.4-1.8-5.9-4-7.6-6.6s-2.5-5.6-2.5-8.8c0-3.6 1-6.9 3.1-10.1 2-3.1 5-5.5 8.9-7.1s8.3-2.4 13-2.4c5.3 0 9.9.8 13.9 2.5s7.1 4.2 9.3 7.5c2.2 3.3 3.3 7 3.5 11.2l-9 .7c-.5-4.5-2.1-7.9-4.9-10.2-2.8-2.3-6.9-3.4-12.4-3.4-5.7 0-9.8 1-12.4 3.1-2.6 2.1-3.9 4.6-3.9 7.5 0 2.6.9 4.7 2.8 6.3 1.8 1.6 6.5 3.3 14.2 5.1s12.9 3.2 15.7 4.5c4.1 1.9 7.2 4.3 9.2 7.2 2 2.9 3 6.3 3 10.1s-1.1 7.3-3.2 10.7c-2.2 3.3-5.3 5.9-9.3 7.8s-8.6 2.8-13.7 2.8c-6.4 0-11.8-.9-16.2-2.8-4.3-1.9-7.8-4.7-10.2-8.5-2.7-3.7-4-8-4.1-12.7zm87.3 15 1.3 7.7c-2.5.5-4.7.8-6.6.8-3.2 0-5.6-.5-7.4-1.5s-3-2.3-3.7-4c-.7-1.6-1.1-5.1-1.1-10.3V215h-6.4v-6.8h6.4v-12.8l8.7-5.2v18h8.8v6.8h-8.8v30.1c0 2.5.2 4.1.5 4.8.3.7.8 1.3 1.5 1.7.7.4 1.7.6 3 .6 1 0 2.3-.1 3.8-.3zm42.2 1.4c-3.2 2.7-6.3 4.7-9.3 5.8-3 1.1-6.2 1.7-9.6 1.7-5.7 0-10-1.4-13-4.1-3-2.8-4.6-6.3-4.6-10.6 0-2.5.6-4.8 1.7-6.9s2.7-3.8 4.5-5c1.9-1.3 4-2.2 6.3-2.9 1.7-.5 4.3-.9 7.8-1.3 7-.8 12.2-1.8 15.6-3v-2.3c0-3.6-.8-6.1-2.5-7.5-2.2-2-5.5-3-9.9-3-4.1 0-7.1.7-9.1 2.2-2 1.4-3.4 4-4.3 7.6l-8.5-1.2c.8-3.7 2.1-6.6 3.8-8.8s4.3-4 7.7-5.2c3.4-1.2 7.3-1.8 11.7-1.8 4.4 0 8 .5 10.7 1.6 2.7 1 4.8 2.3 6.1 3.9 1.3 1.6 2.2 3.5 2.7 5.9.3 1.5.4 4.2.4 8V238c0 8.1.2 13.2.6 15.4.4 2.2 1.1 4.2 2.2 6.2h-9.1c-1.1-1.7-1.7-3.8-1.9-6.3zm-.8-19.4c-3.2 1.3-7.9 2.4-14.3 3.3-3.6.5-6.1 1.1-7.6 1.7-1.5.6-2.6 1.6-3.4 2.8-.8 1.2-1.2 2.6-1.2 4.1 0 2.3.9 4.3 2.6 5.8s4.3 2.3 7.7 2.3c3.4 0 6.4-.7 9-2.2 2.6-1.5 4.5-3.5 5.8-6 .9-2 1.4-4.9 1.4-8.7v-3.1zm41.5 18 1.3 7.7c-2.5.5-4.7.8-6.6.8-3.2 0-5.6-.5-7.4-1.5s-3-2.3-3.7-4c-.7-1.6-1.1-5.1-1.1-10.3V215h-6.4v-6.8h6.4v-12.8l8.7-5.2v18h8.8v6.8h-8.8v30.1c0 2.5.2 4.1.5 4.8.3.7.8 1.3 1.5 1.7.7.4 1.7.6 3 .6.9 0 2.2-.1 3.8-.3zm5-7.6 8.6-1.4c.5 3.5 1.8 6.1 4 8 2.2 1.8 5.3 2.8 9.3 2.8 4 0 7-.8 8.9-2.4 1.9-1.6 2.9-3.5 2.9-5.7 0-2-.9-3.5-2.6-4.7-1.2-.8-4.2-1.8-8.9-3-6.4-1.6-10.8-3-13.3-4.2-2.5-1.2-4.3-2.8-5.6-4.9-1.3-2.1-1.9-4.4-1.9-6.9 0-2.3.5-4.4 1.6-6.4 1-2 2.5-3.6 4.3-4.9 1.4-1 3.2-1.8 5.6-2.5 2.3-.7 4.9-1 7.5-1 4 0 7.6.6 10.6 1.7 3.1 1.2 5.3 2.7 6.8 4.7s2.5 4.6 3 8l-8.5 1.2c-.4-2.6-1.5-4.7-3.4-6.2s-4.5-2.2-7.9-2.2c-4 0-6.9.7-8.6 2-1.7 1.3-2.6 2.9-2.6 4.7 0 1.1.4 2.2 1.1 3.1.7.9 1.8 1.7 3.3 2.3.9.3 3.4 1.1 7.7 2.2 6.2 1.6 10.5 3 12.9 4 2.4 1.1 4.4 2.6 5.7 4.6 1.4 2 2.1 4.5 2.1 7.5 0 2.9-.8 5.6-2.5 8.2-1.7 2.6-4.1 4.6-7.3 6s-6.8 2.1-10.9 2.1c-6.7 0-11.8-1.4-15.3-4.2-3.4-2.9-5.6-7-6.6-12.5z" style="fill:#fff"/></g></svg>